<?xml version="1.0" encoding="UTF-8"?>
<svg id="a" data-name="Layer 1" xmlns="http://www.w3.org/2000/svg" viewBox="0 0 148 127.75">
  <defs>
    <style>
      .b {
        fill: #42240c;
      }

      .b, .c, .d {
        stroke-width: 0px;
      }

      .c {
        fill: #6c4c34;
      }

      .d {
        fill: #e6e7e8;
      }
    </style>
  </defs>
  <path class="b" d="m147.56,101.77c-23.8,1.02-48.45,2.92-80.43,2.22C38.06,103.35.32,90.03.32,90.03l147.23,11.73Z"/>
  <path class="c" d="m78.5,100.25V18.31c0-3.79.17-7.62,0-11.4,0-.05,0-.11,0-.16,0-1.93-3-1.93-3,0v81.94c0,3.79-.17,7.62,0,11.4,0,.05,0,.11,0,.16,0,1.93,3,1.93,3,0h0Z"/>
  <path class="d" d="m75.81,0s30.15,37.15,36.48,49.95c4.74,9.57,9.19,37.63,9.19,37.63l-86.48,2.17s25.84-27.44,30.98-38.75S75.81,0,75.81,0Z"/>
  <path class="c" d="m0,90.03c0-.53,36.64,9.87,72.22,9.81,38.32-.07,75.78-1.83,75.78-1.1,0,11.74-10.83,22.48-27.97,28.98-.99.38-98.18-2.75-98.57-2.92C7.79,119.06,0,100.19,0,90.03Z"/>
</svg>