<?xml version="1.0" encoding="UTF-8"?>
<svg id="a" data-name="Layer 1" xmlns="http://www.w3.org/2000/svg" viewBox="0 0 107 126">
  <defs>
    <style>
      .d {
        fill: #231f20;
        isolation: isolate;
        opacity: .07;
      }

      .d, .e, .f, .g, .h, .i, .j, .k, .l, .m, .n {
        stroke-width: 0px;
      }

      .e {
        fill: #f2f3f3;
      }

      .f {
        fill: #dbdcdd;
      }

      .g {
        fill: #fff;
      }

      .h {
        fill: #ffe8cb;
      }

      .i {
        fill: #e8e8e9;
      }

      .j {
        fill: #e7a355;
      }

      .k {
        fill: #fcbe66;
      }

      .l {
        fill: #ffd397;
      }

      .m {
        fill: #f5f5f6;
      }

      .n {
        fill: #e6e7e8;
      }
    </style>
  </defs>
  <g id="b" data-name="d">
    <path class="d" d="m106.35,54.98c-.84-8-6.03-21.21-13.39-25.8-7.35-4.59-17.62.84-20.08,1.62-.38.12-.75.17-1.09.18.08-.08.16-.13.22-.16-.58-.05-3.18-1.11-3.18-1.11,0,0,.12.44.32,1.16l-.72-1.04c.25-.07.41-.12.41-.12l-.64-.74-2.03-3.77-1.17-.85.73-1.82-6.31-15.39c-.7-2.93-2.78-7.75-8.67-5-1.51.71-5.65,3.3-6.67,3.49-1.03.18-8.62-1.14-11.16-.21-4.97,1.82-5.99,2.86-7.11,3.07s-7,4.23-8.34,4.06c-1.34-.16-4.29-3-6.67-1.9-1.77.82-2.68,3.28-3.76,4.7v10.52c1.19,6.16,3.55,16.52,3.55,16.52l1.37.58-.39.63s.02,0,.03,0l-.84,1.45.58,1.84.26-.08.35.04,15.83,52.04s1.77,4.39,3.31,9.81,2.26,8.33,3.33,11.72c0,0,.04.17.13.44.27,1.09.4,2.36,1.25,3.36.37.72.78,1.3,1.22,1.45.92.31,2.51.39,4.51.31,1.43,0,3.2-.16,5.35-.49,6.72-.86,15.07-2.64,20.28-4.29,7.13-2.25,15.97-6.06,21.71-8.72,2.24-1.03,3.13-2.54,3.39-4,.21-.41.28-.78.23-1.11-.04-.21-.11-.52-.21-.91-.13-.92-.42-1.68-.6-2.09-.3-1-.66-2.14-1.04-3.33-.86-2.7-1.88-5.14-2.59-6.73,0-.04.01-.07.02-.11l2.59-2.65s-.06,0-.16-.02c2.28-1.75,5.33-3.59,5.66-4.81.54-2.02,8.19-11.52,9.85-16,1.36-3.67,1.21-7.75.37-15.75h0Zm-6.25,14.57c-1.17,3.59-6.8,9.8-10.29,11.58-1.29.66-2.44.74-3.37.58l-2.03-.98-.13-.56-10.22-32.82c.03.07.04.1.04.1l-.18-.6c.01.1.04.18.05.24l-.33-1.06v-.13l.28.95c-.07-.38-.13-.97-.09-1.85.01-.27.09-.66.22-1.11.33-.95.78-1.97,1.2-2.81,1.4-2.54,3.82-5.43,7.29-6.42,5.73-1.64,11.7,3.38,14.58,11.42,2.87,8.03,4.4,19.08,2.98,23.47h0Z"/>
    <polygon class="f" points="49.95 20.55 43.96 24.06 47.39 23.1 49.95 20.55"/>
    <path class="k" d="m66.47,26.18l4.88,14.65,11.14,35.79,2.86,12.25s1.97,3.94,3.46,8.61c.92,2.85,1.69,5.42,1.85,6.33.42,2.39-5.82,7.49-32.29,15.01-26.48,7.52-24.7,1.4-25.77-1.98s-1.79-6.3-3.33-11.71c-1.54-5.42-3.31-9.81-3.31-9.81L5.1,26.35l60.73-1.54.63,1.37h0Z"/>
    <path class="i" d="m65.88,25.03l-.6-1.52-1.18-.3.73-1.41L56.44,1.67s-3.52.39-9.77,1.72c-1.86.4-3.97.87-6.3,1.45-3,.74-6.38,1.64-10.08,2.73C14.1,12.35,5.65,15.36,4.29,17.98c-.91,1.75.91,8.42.91,8.42l.07.5s8.5-.67,11.62-.44c4,.28,17.91.59,17.91.59,0,0,4.88-.22,6.62-.28,1.91-.07,6.23-.61,9.62-.59,7.83.05,14.82-1.15,14.82-1.15h.01Z"/>
    <path class="j" d="m62.45,22.8s-19.07,5.86-23.95,7.23c-4.88,1.37-28.96,8.73-28.96,8.73l.62.65-.39.63s24.95-7.8,29.19-9.06c4.24-1.26,19.63-5.7,19.63-5.7l3.86-2.48Z"/>
    <path class="f" d="m7.41,18.57l-3.27,1.03s.41,1.67,3.47,14.54l-.2-15.57h0Z"/>
    <path class="e" d="m26.33,14.79c2-.4,4.47,4.54,5.19,6.46.72,1.91,2.15,5.73,2.15,5.73l-6.45,2.37-1.06-2.9-1.37-3.75s-1.31-7.34,1.55-7.91Z"/>
    <path class="e" d="m52.72,10.33c.93-.81,3.38,1.07,3.89,3.04.51,1.97.22,5.33.22,5.33,0,0-2.61-2.21-3.13-3.85-.52-1.63-1.85-3.77-.98-4.53h0Z"/>
    <polygon class="f" points="55.62 2.61 57.28 6.97 54.22 3.16 55.62 2.61"/>
    <path class="l" d="m26.98,36.01s6.29-1.09,6.9-1.29c.61-.19-7.57,2.73-7.57,2.73l-4.02,1.16,4.69-2.61Z"/>
    <polygon class="l" points="58.53 26.04 63.56 25.7 55.97 28.08 58.53 26.04"/>
    <path class="n" d="m66.47,26.15s2.18,1.86,4.64,1.09c2.45-.78,12.72-6.21,20.07-1.62,7.36,4.6,12.55,17.8,13.39,25.8.84,8,.99,12.07-.37,15.75-1.65,4.48-9.3,13.97-9.85,16-.54,2.02-8.64,5.76-8.11,7.97.52,2.19.3.92.3.92l-4.45-15.13s2.45,2.43,5.95.65c3.49-1.78,9.12-7.98,10.29-11.58,1.43-4.39-.1-15.44-2.98-23.47-2.87-8.03-8.85-13.06-14.58-11.42-5.73,1.64-8.63,8.46-8.71,10.34-.08,1.88.27,2.45.27,2.45l-5.85-17.74h0Z"/>
    <path class="m" d="m93,28.87l4.15,3.86s-2.26-1.09-2.9-1.67c-.64-.58-1.26-2.19-1.26-2.19h0Z"/>
    <path class="m" d="m98.66,43.95s2.45,10.93,2.39,13.98c-.05,3.05-.77,7.89-.77,7.89,0,0,1.91-5.33,1.63-9.41-.27-4.08-3.27-12.47-3.27-12.47h0Z"/>
    <path class="l" d="m66.47,26.12s3.56,1.34,3.86,1.25-1.63-.28-.33,4.6c1.32,4.87,2.58,5.51,4.6,3.75,0,0-3.09,4.45-2.53,7.4,0,.03-5.62-17-5.62-17h0Z"/>
    <path class="j" d="m82.08,76.91l4.04,13.85,2.72-2.77s-2.87-.21-3.64-3.69c-.76-3.47.06-5.87.06-5.87l-3.18-1.52h0Z"/>
    <path class="n" d="m32.62,116.84s23.45-3.2,29.33-4.88c5.87-1.69,27.75-11.48,27.75-11.48,0,0,3.09,5.77-2.65,8.43s-14.57,6.47-21.71,8.72c-8.67,2.74-25.99,5.85-30.14,4.46-1.36-.45-2.59-5.25-2.59-5.25h0Z"/>
    <path class="l" d="m77.75,110.17s-10.83,3.09-13.4,4.06-14.11,3.95-14.11,3.95c0,0,12.75-1.84,14.74-2.47,2-.63,12.76-5.55,12.76-5.55Z"/>
    <path class="m" d="m39.06,118.02s5.92-1.03,8.21-1.25c2.29-.21,5.31-1.34,5.31-1.34,0,0-5.17,2.31-6.4,2.7-1.23.38-7.12-.11-7.12-.11h0Z"/>
    <path class="m" d="m87.79,102.95s.84,1.59.32,2.6c-.52,1.01-3.08,1.99-3.08,1.99l2.76-4.59h0Z"/>
    <path class="l" d="m72.88,60.45l11.79,36.06s-6.07-10.68-7.99-18.17c-1.92-7.49-3.81-17.89-3.81-17.89Z"/>
    <path class="j" d="m68.77,60.33s6.04,16.34,7.01,19.42c.97,3.07,7.88,17.08,7.88,17.08,0,0-9.06-15.13-9.24-16.43s-5.65-20.07-5.65-20.07h0Z"/>
    <path class="h" d="m68.44,70.05l9.47,29.95s-4.76-8.36-6.26-14.22c-1.51-5.87-3.21-15.72-3.21-15.72Z"/>
    <path class="j" d="m67.74,71.16s2.45,13.32,3.21,15.72c.75,2.4,6.16,13.37,6.16,13.37,0,0-7.09-11.85-7.23-12.86-.15-1.01-2.14-16.23-2.14-16.23h0Z"/>
    <path class="j" d="m25.97,92.36s4.32,8.77,5.3,11.84c.97,3.07,2.08,9.35,2.08,9.35l-.94-.83s-1.45-5.95-1.97-7.58c-.52-1.63-4.46-12.78-4.46-12.78h0Z"/>
    <path class="l" d="m27.22,88.82s4.44,9.73,4.63,11.02,2.96,12.03,2.96,12.03c0,0-.95-8.5-1.87-12.15-.85-3.33-5.71-10.91-5.71-10.91Z"/>
    <path class="l" d="m27.22,48.48s4.44,9.73,4.63,11.02,2.96,12.03,2.96,12.03c0,0-.95-8.5-1.87-12.15-.85-3.33-5.71-10.91-5.71-10.91Z"/>
    <path class="l" d="m55.93,38.97s2.41,10.43,3.05,11.56c.64,1.14,4.99,11.34,4.99,11.34,0,0-4.43-7.32-5.93-10.77-1.36-3.16-2.11-12.13-2.11-12.13h0Z"/>
    <path class="j" d="m31.68,85.4l5.96,15.78,3.25,10.85s-1.17-9.12-1.83-11.37c-.69-2.36-7.37-15.27-7.37-15.27h0Z"/>
    <path class="j" d="m51.52,40.38l3.74,15.78,5.46,10.85s-3.39-9.12-4.05-11.37c-.69-2.36-5.16-15.27-5.16-15.27h0Z"/>
    <path class="j" d="m59.45,33.2l4.26,15.78,4.09,8.28s-2.01-6.53-2.67-8.79c-.69-2.36-5.68-15.27-5.68-15.27Z"/>
    <path class="j" d="m41.88,49.51l4.81,16.17,2.46,11.06s-.52-9.18-1.01-11.48c-.52-2.4-6.26-15.75-6.26-15.75h0Z"/>
    <polygon class="l" points="37.6 85.61 40.82 100.14 44.83 110.52 42.28 99.52 37.6 85.61"/>
    <polygon class="l" points="63.25 30.4 66.46 44.95 72.51 59.08 67.92 44.33 63.25 30.4"/>
    <polygon class="l" points="65.34 80.52 67.81 88.85 72.54 103.81 66.6 89.32 65.34 80.52"/>
    <polygon class="j" points="64.45 87.3 70.92 103.22 64.97 91.1 64.45 87.3"/>
    <polygon class="j" points="8.26 34.96 10.89 35.81 9.13 37.21 8.26 34.96"/>
    <polygon class="f" points="61.24 17.36 63.38 20.4 62.1 20.64 61.24 17.36"/>
    <path class="l" d="m51.03,92.81s.27,6.51.83,8.17,2.77,6.1,2.77,6.1l-3.6-14.26h0Z"/>
    <path class="e" d="m22.79,16.93s-.03,5.43.28,6.65c.97,3.88-1.38,7.75-1.38,7.75,0,0-1.66-2.78-1.66-6.51,0-4.01,2.77-7.89,2.77-7.89h0Z"/>
    <polygon class="j" points="32.81 48.62 37.79 62.93 42.2 74.33 36.67 63.8 32.81 48.62"/>
    <polygon class="j" points="21.56 48.38 24.03 56.72 28.76 71.67 22.82 57.18 21.56 48.38"/>
    <polygon class="l" points="16.87 48.86 23.3 67.93 17.21 53.36 16.87 48.86"/>
    <path id="c" data-name="e" class="m" d="m13.69,5.58s2.48-2.94,1.06-3.41c-1.41-.47-1.06,3.41-1.06,3.41Z"/>
    <path class="m" d="m10.74,49.35c-.74,0-1.31,2.51-.08,2.54,1.23.03.82-2.53.08-2.54Z"/>
    <path class="m" d="m9.51,23.4c.55-2,2.91-3.48,3.45-3.56,1.93-.3,3.37-1.88,4.64-1.97,1.6-.11,4.32-5.71,6.01-5.86,1.84-.16,3.01,1.61,4.67,1.56,2.37-.07,4.26-4.02,5.19-4.15,1.56-.22,4.09.13,5.04.07s5.79-3.27,7.22-3.64c.86-.22,5.1-2.94,6.31-2.84,1.21.09,4.44.42,5.04.26l.95,2.22s.22-8.85-12.98-4.07c-1.57.57-4.09.56-5.12.74-1.03.18-7.34.63-10.5,1.23-5.2.98-5.88,2.13-7,2.33-1.12.21-5.39,3.45-6.72,3.29s-4.46-1.6-6.85-.5c-2.39,1.1-4.08,3.78-5.12,4.29-1.04.51-5.08,1.34-3.25,5.33.72,1.57,3.82,7.09,5.59,15.75,1.71,8.34,4.26,15.32,5.38,15.1.95-.19-1.13-7.98-1.8-11.19-.64-3.06-.66-12.45-.13-14.36h0Z"/>
    <polygon class="f" points="51.26 26.18 55.19 26.25 58.6 25.28 62.45 22.8 51.26 26.18"/>
    <polygon class="l" points="33.57 27.03 27.22 29.36 26.31 26.84 33.57 27.03"/>
    <path class="l" d="m21.68,31.33s-1.54-2.95-1.54-4.73c0,0,3.1.01,3.1.03.14,1.6-1.55,4.71-1.55,4.71h0Z"/>
    <path class="g" d="m12.95,11.03c-.93-1.06-2.7-1.27-3.1-1.43-.41-.16-1.68-.47-1.54.08.15.55,2,1.34,2.57,1.94.56.6,2.86,2.19,3.33,1.82s-1.25-2.42-1.25-2.42Z"/>
    <path class="g" d="m34.52,3.6c-1.48-.17-4.19.08-4.27.83-.08.74,3.12.67,4.11.66.99-.01,3.03-.33,2.9-.81s-2.74-.67-2.74-.67h0Z"/>
    <path class="g" d="m28.66,10.4c-.86-.19-2.56-.02-2.81.68s1.71.72,2.32.72,1.93-.24,1.98-.7c.05-.46-1.49-.7-1.49-.7h0Z"/>
    <path class="k" d="m72.54,37.25c-.75.52-1.54-.39-1.54-.39l.74,3.41s1.39-3.44.8-3.02Z"/>
    <path class="k" d="m68.03,28.01l.89.33s.06,1.23.17,1.75c.11.52.17,1.81.17,1.81l-1.23-3.89h0Z"/>
  </g>
</svg>