<?xml version="1.0" encoding="UTF-8"?>
<svg id="a" data-name="Layer 1" xmlns="http://www.w3.org/2000/svg" viewBox="0 0 500 136.28">
  <defs>
    <style>
      .b {
        fill: #54301a;
      }

      .b, .c, .d {
        stroke-width: 0px;
      }

      .c {
        fill: #a95339;
      }

      .d {
        fill: #e6e7e8;
      }
    </style>
  </defs>
  <path class="d" d="m34.58,31.87l-.52-2.33c26.14-5.87,63.14-11.11,109.97-15.55C238.92,4.97,364.91,0,498.81,0h1.19v29.89h-2.39V2.39c-133.37.03-258.83,4.99-353.36,13.97-46.73,4.44-83.63,9.66-109.67,15.51Z"/>
  <path class="b" d="m498.81,136.28c-133.92,0-259.96-4.97-354.89-13.99-49.44-4.7-69.89-7.34-91.18-11.77-33.57-7-49.38-14.57-49.74-23.84-.42-10.82,21.44-17.51,23.93-18.24,16.81-5.54,54.99-13.72,140.95-21.05,90.9-7.76,208.42-12.03,330.93-12.03v4.78c-122.38,0-239.76,4.27-330.52,12.02-90.01,7.68-126.31,16.36-139.94,20.86-8.71,2.55-20.78,8.4-20.58,13.49.12,2.96,4.83,10.78,45.94,19.35,21.09,4.4,41.42,7.02,90.66,11.7,94.78,9.01,220.66,13.97,354.44,13.97v4.78Z"/>
  <path class="c" d="m498.81,131.4c-134.02,0-260.16-4.97-355.17-14-49.56-4.71-70.08-7.36-91.51-11.82C16.51,98.15.44,89.94,0,78.93c-.49-12.43,19.64-19.33,25.99-21.2,17.09-5.61,55.52-13.84,141.63-21.19,90.98-7.77,208.6-12.04,331.18-12.04v10.75c-122.29,0-239.58,4.26-330.27,12-89.7,7.66-125.75,16.27-139.26,20.72l-.18.05c-9.82,2.88-18.44,8.26-18.35,10.49,0,.08.8,7.63,43.57,16.54,20.97,4.37,41.24,6.98,90.33,11.65,94.69,9,220.46,13.95,354.16,13.95v10.75Z"/>
  <path class="d" d="m498.81,113.29c-133.89,0-259.88-4.97-354.78-13.98-49.39-4.69-69.81-7.33-91.05-11.75-32.5-6.77-48.46-14.2-48.79-22.71-.39-9.91,20.67-16.35,23.08-17.05,13.74-4.53,50.35-13.3,140.72-21.01,90.86-7.76,208.35-12.03,330.83-12.03v2.39c-122.41,0-239.83,4.27-330.62,12.02-90.13,7.69-126.54,16.4-140.22,20.91-6.07,1.77-21.67,7.84-21.4,14.67.19,4.92,8.49,12.47,46.89,20.47,21.14,4.4,41.5,7.03,90.79,11.72,94.82,9.01,220.74,13.97,354.55,13.97v2.39Z"/>
  <rect class="d" x="497.61" y="95.87" width="2.39" height="28.69"/>
  <path class="d" d="m498.81,97.06c-122.47,0-239.96-4.27-330.83-12.03-90.37-7.72-126.98-16.48-140.76-21.02-2.54-.9-24.57-8.98-24.25-18.69.17-5.1,6.17-9.24,18.33-12.65l12.73-3.13.57,2.32-12.7,3.12c-10.68,2.99-16.42,6.6-16.55,10.42-.23,6.76,16.26,14.1,22.63,16.35,13.65,4.5,50.06,13.21,140.19,20.9,90.8,7.75,208.22,12.02,330.62,12.02v2.39Z"/>
  <rect class="d" x="486.49" y="95.84" width="2.39" height="28.73"/>
  <rect class="d" x="465.13" y="95.84" width="2.39" height="28.73"/>
  <rect class="d" x="443.78" y="95.84" width="2.39" height="28.73"/>
  <rect class="d" x="422.42" y="95.84" width="2.39" height="28.73"/>
  <rect class="d" x="401.07" y="95.11" width="2.39" height="28.73"/>
  <rect class="d" x="379.71" y="94.45" width="2.39" height="28.73"/>
  <rect class="d" x="358.35" y="93.95" width="2.39" height="28.73"/>
  <rect class="d" x="337" y="93.19" width="2.39" height="28.73"/>
  <rect class="d" x="315.64" y="92.56" width="2.39" height="28.73"/>
  <rect class="d" x="294.29" y="91.68" width="2.39" height="28.73"/>
  <rect class="d" x="272.93" y="90.93" width="2.39" height="28.73"/>
  <rect class="d" x="251.57" y="89.79" width="2.39" height="28.73"/>
  <rect class="d" x="230.22" y="88.53" width="2.39" height="28.73"/>
  <rect class="d" x="208.86" y="87.28" width="2.39" height="28.73"/>
  <rect class="d" x="187.5" y="85.76" width="2.39" height="28.73"/>
  <rect class="d" x="166.15" y="83.88" width="2.39" height="28.73"/>
  <rect class="d" x="144.79" y="82.11" width="2.39" height="28.73"/>
  <rect class="d" x="123.44" y="80.1" width="2.39" height="28.73"/>
  <rect class="d" x="102.08" y="77.32" width="2.39" height="28.73"/>
  <rect class="d" x="80.72" y="74.68" width="2.39" height="28.73"/>
  <rect class="d" x="59.37" y="71.4" width="2.39" height="28.73"/>
  <rect class="d" x="38.01" y="66.89" width="2.39" height="28.73"/>
  <rect class="d" x="16.66" y="61.46" width="2.39" height="28.73"/>
  <rect class="d" x="486.49" y="1.19" width="2.39" height="28.73"/>
  <rect class="d" x="465.13" y="1.19" width="2.39" height="28.73"/>
  <rect class="d" x="443.78" y="1.19" width="2.39" height="28.73"/>
  <rect class="d" x="422.42" y="1.82" width="2.39" height="28.73"/>
  <rect class="d" x="401.07" y="1.82" width="2.39" height="28.73"/>
  <rect class="d" x="379.71" y="2.5" width="2.39" height="28.73"/>
  <rect class="d" x="358.35" y="3.08" width="2.39" height="28.73"/>
  <rect class="d" x="337" y="3.71" width="2.39" height="28.73"/>
  <rect class="d" x="315.64" y="4.43" width="2.39" height="28.73"/>
  <rect class="d" x="294.29" y="5.1" width="2.39" height="28.73"/>
  <rect class="d" x="272.93" y="5.98" width="2.39" height="28.73"/>
  <rect class="d" x="251.57" y="7.36" width="2.39" height="28.73"/>
  <rect class="d" x="230.22" y="8.62" width="2.39" height="28.73"/>
  <rect class="d" x="208.86" y="9.92" width="2.39" height="28.73"/>
  <rect class="d" x="187.5" y="11.27" width="2.39" height="28.73"/>
  <rect class="d" x="166.15" y="13.28" width="2.39" height="28.73"/>
  <rect class="d" x="144.79" y="14.79" width="2.39" height="28.73"/>
  <rect class="d" x="123.44" y="17.14" width="2.39" height="28.73"/>
  <rect class="d" x="102.08" y="19.46" width="2.39" height="28.73"/>
  <rect class="d" x="80.72" y="22.99" width="2.39" height="28.73"/>
  <rect class="d" x="59.37" y="25.63" width="2.39" height="28.73"/>
  <rect class="d" x="38.01" y="29.92" width="2.39" height="28.73"/>
  <rect class="d" x="16.66" y="36.09" width="2.39" height="28.73"/>
  <rect class="d" x="4.76" y="50.48" width="2.39" height="28.73"/>
</svg>