<?xml version="1.0" encoding="UTF-8"?>
<svg xmlns="http://www.w3.org/2000/svg" viewBox="0 0 477 372.29">
  <defs>
    <style>
      .h {
        font-size: 20.62px;
      }

      .h, .i {
        font-family: SourceSansPro-Bold, 'Source Sans Pro';
        font-weight: 700;
      }

      .h, .i, .j {
        fill: #f5f5f6;
      }

      .k {
        opacity: .07;
      }

      .k, .l, .m, .n {
        mix-blend-mode: darken;
      }

      .k, .l, .n, .o, .p, .q, .r, .s, .t, .u, .v, .w, .x, .y, .j, .z {
        stroke-width: 0px;
      }

      .k, .l, .p {
        fill: #231f20;
      }

      .i {
        font-size: 31.32px;
      }

      .l {
        opacity: .1;
      }

      .m {
        opacity: .35;
      }

      .n {
        opacity: .5;
      }

      .n, .q {
        fill: #dbdcdd;
      }

      .aa {
        isolation: isolate;
      }

      .o {
        fill: #f2f3f3;
      }

      .r {
        fill: #af463a;
      }

      .s {
        fill: #9e3e33;
      }

      .t {
        fill: #fff;
      }

      .u {
        fill: #ffe8cb;
      }

      .v {
        fill: #e8e8e9;
      }

      .w {
        fill: #e7a355;
      }

      .x {
        fill: #fcbe66;
      }

      .y {
        fill: #ffd397;
      }

      .z {
        fill: #e6e7e8;
      }
    </style>
  </defs>
  <g class="aa">
    <g id="a" data-name="steins">
      <g id="b" data-name="stein-l">
        <path class="k" d="m243,134.78v-14.24c-1.62-1.81-3.77-5.01-6.2-6.13-3.23-1.49-7.56.72-9.37.94-1.04.13-3.19-.33-5.9-1.89-2.01-1.15-3.57-3.61-4.22-3.73-1.14-.21-8.53-.7-10.21-1.31-1.29-.47-3.21-1.95-5.59-1.83-2.05.1-4.78-1.99-6.5-1.82-1.61.16-6.15.77-8.45-.54-1.29-.74-2.87-3.68-3.64-3.96-4.47-1.62-7.1.44-9.11,1-6.03,1.67-3,10.48-3,10.48l1.28-3c.06.02.14.03.23.04l-10.49,25.17.99,1.91-1.63.85-1.51,2.14-.85,1s.2.06.54.16l-.48.69c.09-.29.14-.46.14-.46,0,0-.14.06-.36.14l.16-.54s-.4.47-1.13.91c-.69.26-1.52.57-2.15.77-.66.08-1.4.04-2.21-.22-3.32-1.05-17.21-8.41-27.16-2.19-9.96,6.22-16.97,24.09-18.12,34.92-1.14,10.83-1.34,16.34.5,21.31,2.23,6.05,12.6,18.9,13.33,21.64.44,1.65,4.58,4.14,7.66,6.51-.13.02-.21.03-.21.03l3.51,3.58c.01.05.02.1.03.15-.96,2.15-2.33,5.46-3.5,9.11-.52,1.62-1,3.16-1.41,4.51-.24.55-.63,1.59-.82,2.85-.13.51-.23.93-.29,1.22-.08.43.02.93.3,1.5.35,1.97,1.56,4.01,4.59,5.42,7.77,3.6,19.72,8.75,29.38,11.8,7.06,2.23,18.35,4.64,27.46,5.8,2.91.45,5.29.66,7.23.66,2.7.11,4.85,0,6.1-.42.58-.19,1.15-.98,1.65-1.96,1.15-1.36,1.33-3.08,1.69-4.55.11-.38.17-.6.17-.6,1.45-4.57,1.55-8.17,3.64-15.51,2.08-7.33,5.34-13.62,5.34-13.62l21.43-70.43.47-.05.35.11.79-2.49-1.14-1.96s.04.01.04.01l-.53-.85,1.84-.79s3.72-13.88,5.34-22.23Zm-89.99,24.93l-1.15,3.7c.03-.1.05-.21.08-.35l-.24.79s.03-.05.07-.14l-13.84,44.43-.18.76-2.74,1.32c-1.27.21-2.82.1-4.56-.78-4.72-2.41-12.34-10.8-13.92-15.67-1.93-5.94.13-20.89,4.03-31.76,3.89-10.87,11.98-17.68,19.73-15.46,4.31,1.23,7.43,4.64,9.38,7.85.98,2.08,2.57,5.79,2.35,7.63-.02.17,0,.22.04.18-.03.35-.06.63-.11.85l.65-2.2c.16-.46.35-1.01.56-1.65l-.14.49Z"/>
        <line class="w" x1="151.58" y1="148.29" x2="150.07" y2="153.96"/>
        <path class="z" d="m157.15,135.19s-2.89,2.35-6.21,1.3c-3.32-1.05-17.21-8.41-27.16-2.19-9.96,6.22-16.97,24.09-18.12,34.92-1.14,10.83-1.34,16.34.5,21.31,2.23,6.05,12.6,18.9,13.33,21.64.73,2.74,11.69,7.81,10.98,10.78-.71,2.97-.4,1.25-.4,1.25l6.02-20.48s-3.32,3.29-8.04.88c-4.72-2.41-12.34-10.8-13.92-15.67-1.93-5.93.13-20.89,4.03-31.76,3.89-10.87,11.98-17.68,19.73-15.46,7.75,2.22,11.68,11.45,11.78,14,.11,2.55-.36,3.31-.36,3.31l7.86-23.85Z"/>
        <polygon class="q" points="179.57 127.44 187.68 132.2 183.04 130.9 179.57 127.44"/>
        <path class="x" d="m155.53,137.26l-4.93,17.63-15.08,48.43-3.87,16.59s-2.66,5.32-4.68,11.65c-1.23,3.86-2.29,7.34-2.51,8.57-.57,3.24,7.87,10.14,43.7,20.32,35.83,10.19,33.42,1.89,34.87-2.68,1.44-4.57,1.55-8.17,3.64-15.51,2.09-7.33,5.35-13.62,5.35-13.62l28.61-93.05-82.36-2.56-2.72,4.22Z"/>
        <path class="v" d="m158.05,133.28l.73-1.39,1.64-.85-.99-1.91,11.35-27.24s4.76.53,13.22,2.33c2.52.54,5.37,1.18,8.52,1.96,4.06,1,8.63,2.22,13.64,3.7,21.93,6.47,33.35,10.54,35.2,14.09,1.23,2.37-2.19,10.96-2.19,10.96l-.45.75s-22.23,1.02-42.64.85c-15.23-.12-29.86-1.39-31.29-1.61-4.4-.66-6.73-1.66-6.73-1.66Z"/>
        <path class="w" d="m162.65,130.49s25.81,7.93,32.41,9.79c6.61,1.86,39.19,11.81,39.19,11.81l-.84.87.53.85s-33.77-10.56-39.51-12.26c-5.74-1.7-26.56-7.71-26.56-7.71l-5.22-3.36Z"/>
        <path class="y" d="m218.84,125.84c-2.7-.54-6.06,6.15-7.02,8.74-.97,2.58-2.91,7.76-2.91,7.76l8.73,3.21,3.3-9s1.77-9.94-2.1-10.71Z"/>
        <path class="o" d="m175.82,113.61c-1.27-1.09-4.57,1.45-5.26,4.12-.69,2.67-.3,7.21-.3,7.21,0,0,3.54-2.99,4.24-5.21.7-2.21,2.51-5.1,1.33-6.13Z"/>
        <polygon class="q" points="170.11 104.15 165.62 115.77 173.79 103.91 170.11 104.15"/>
        <path class="y" d="m210.66,148.37s-8.52-1.47-9.35-1.74c-.83-.26,10.25,3.7,10.25,3.7l5.44,1.57-6.34-3.53Z"/>
        <polygon class="y" points="168.87 135.62 161.65 134.86 171.42 137.64 168.87 135.62"/>
        <path class="j" d="m121.31,138.7l-5.61,5.23s3.05-1.47,3.91-2.26c.86-.8,1.7-2.97,1.7-2.97Z"/>
        <path class="j" d="m113.64,159.11s-3.3,14.79-3.24,18.92c.07,4.13,1.04,10.68,1.04,10.68,0,0-2.59-7.21-2.22-12.73.37-5.51,4.42-16.87,4.42-16.87Z"/>
        <path class="y" d="m156.62,135.42s-4.02,1.62-4.43,1.49c-.42-.13,2-.61.22,5.98-1.78,6.59-3.17,7.56-5.91,5.17,0,0,3.4,6.49,3.09,9.14-.3,2.64,7.03-21.78,7.03-21.78Z"/>
        <path class="w" d="m136.08,203.72l-5.47,18.75-3.68-3.75s3.9-.29,4.92-4.99c1.03-4.7-.07-7.94-.07-7.94l4.31-2.06Z"/>
        <path class="z" d="m203.02,257.77s-31.74-4.33-39.69-6.61c-7.95-2.29-37.56-15.53-37.56-15.53,0,0-4.18,7.81,3.59,11.41,7.77,3.59,19.72,8.75,29.38,11.8,11.73,3.71,35.17,7.92,40.79,6.04,1.85-.62,3.51-7.11,3.51-7.11Z"/>
        <path class="y" d="m141.94,248.73s14.66,4.18,18.13,5.5c3.46,1.32,19.09,5.35,19.09,5.35,0,0-17.25-2.48-19.95-3.34-2.7-.85-17.26-7.51-17.26-7.51Z"/>
        <path class="j" d="m194.3,259.35s-8.01-1.39-11.11-1.69c-3.1-.29-7.19-1.81-7.19-1.81,0,0,7,3.13,8.66,3.65,1.66.52,9.64-.15,9.64-.15Z"/>
        <path class="j" d="m128.36,238.96s-1.13,2.15-.42,3.52c.71,1.36,4.17,2.69,4.17,2.69l-3.75-6.21Z"/>
        <path class="w" d="m148.18,181.28l-15.62,48.96s8.22-14.45,10.82-24.59c2.59-10.14,4.8-24.37,4.8-24.37Z"/>
        <path class="y" d="m150.77,182.28s-4.85,21.12-6.16,25.28c-1.31,4.15-10.66,23.12-10.66,23.12,0,0,12.26-20.48,12.51-22.23.25-1.75,4.31-26.17,4.31-26.17Z"/>
        <path class="w" d="m154.54,194.44l-12.81,40.53s6.44-11.31,8.47-19.25c2.04-7.94,4.34-21.27,4.34-21.27Z"/>
        <path class="u" d="m155.49,195.93s-3.31,18.02-4.34,21.27c-1.03,3.25-8.34,18.1-8.34,18.1,0,0,9.6-16.04,9.79-17.41.19-1.37,2.89-21.97,2.89-21.97Z"/>
        <path class="w" d="m159.79,139.91l-11.08,39.44s4.7-10.22,6.73-18.16c2.04-7.94,4.34-21.27,4.34-21.27Z"/>
        <path class="y" d="m160.74,141.4s-3.31,18.02-4.34,21.27c-1.03,3.25-5.59,18.31-5.59,18.31,0,0,6.85-16.25,7.04-17.61.19-1.37,2.89-21.97,2.89-21.97Z"/>
        <path class="y" d="m212.09,219.59s-5.99,14.21-7.31,18.37c-1.31,4.15-2.49,15.37-2.49,15.37l1.27-1.12s1.84-11.1,2.54-13.31c.7-2.21,6-19.3,6-19.3Z"/>
        <path class="w" d="m210.03,215.65s-5.84,14.93-6.09,16.68c-.25,1.75-4.41,18.93-4.41,18.93,0,0,1.74-14.18,3-19.11,1.15-4.5,7.5-16.49,7.5-16.49Z"/>
        <polygon class="y" points="202.53 217.15 196.16 234.39 192.23 250.32 194.12 233.85 202.53 217.15"/>
        <polygon class="w" points="197.47 213.22 190.54 232.52 185.48 248.26 188.61 232.48 197.47 213.22"/>
        <polygon class="w" points="207.51 161.82 200.58 181.12 195.52 196.86 198.65 181.09 207.51 161.82"/>
        <polygon class="y" points="229.42 163.28 222.93 179.47 220.51 191.48 220.9 178.92 229.42 163.28"/>
        <polygon class="w" points="222.15 162.67 217.31 179.58 212.02 191.27 215.38 179.54 222.15 162.67"/>
        <polygon class="w" points="158.74 208.6 155.4 219.88 149 240.12 157.03 220.51 158.74 208.6"/>
        <polygon class="y" points="159.95 217.78 151.19 239.33 159.24 222.92 159.95 217.78"/>
        <polygon class="w" points="175.04 156.7 171.71 167.97 165.31 188.21 173.33 168.6 175.04 156.7"/>
        <polygon class="y" points="176.87 162.59 167.5 187.42 175.54 171.01 176.87 162.59"/>
        <polygon class="w" points="167.03 147.94 162.52 164.04 156.12 184.28 164.15 164.67 167.03 147.94"/>
        <polygon class="y" points="169.24 155.17 159.81 183.27 166.36 167.08 169.24 155.17"/>
        <polygon class="w" points="236.38 146.88 229.94 150.92 234.25 152.1 236.38 146.88"/>
        <polygon class="q" points="164.29 123.14 161.39 127.24 163.12 127.56 164.29 123.14"/>
        <path class="y" d="m169.37,223.9s-2.81,7.12-3.75,9.37c-.94,2.25-2.81,8.62-2.81,8.62l4.87-8.43,1.69-9.56Z"/>
        <path class="y" d="m210.08,170.84s-4.09,10.21-5.03,12.45c-.94,2.25-2.81,8.62-2.81,8.62l4.87-8.43,2.97-12.64Z"/>
        <path class="o" d="m178.73,118.21s-2.63,1.5-2.63,2.62.94,3.37.94,3.37l2.44-2.43-.75-3.56Z"/>
        <path class="w" d="m172.6,217.58s7.41-22.39,8.98-26.45c1.57-4.06,6.1-24.72,6.1-24.72,0,0-3.2,23.66-4.09,25.18-.9,1.52-10.98,25.99-10.98,25.99Z"/>
        <path class="n" d="m232.76,127.91l3.93,1.41.28,2.53-1.27,4.92-.56,3.66s.28-6.61-.14-8.57c-.42-1.97-2.25-3.94-2.25-3.94Z"/>
        <path class="j" d="m231.77,174.69c-1.17.88-2.57,5.64-.34,5.87,2.23.23.97-6.34.34-5.87Z"/>
        <path id="c" data-name="droplet-l" class="j" d="m229.33,105.2s-1.34-5.03-2.95-3.83c-1.62,1.21,2.95,3.83,2.95,3.83Z"/>
        <path class="j" d="m232.38,125.45c-.92,0-1.1.9-3.11.7-1.12-.11-2.45-4.85-4.22-4.92-2.03-.08-1.61.3-4.22.1-2.53-.19-3.8-4.91-6.02-5.02-1.12-.06-3.06.61-5.22,0-2.17-.61-4.34-2.64-5.52-3.11-1.18-.48-5.41-.61-7.53-.8-1.29-.12-10.5-3.9-11.26-4.84-.76-.94-6.91-3.98-8.54-3.85-1.64.12-5.84.44-6.65.21l-1.28,3s1.08-7.15,3.64-7.66c2.04-.41,10.4-.59,11.69.14,2.3,1.31,12.9,2.46,14.94,2.36,2.38-.12,4.3,1.36,5.59,1.83,1.69.61,6.78,3.38,7.92,3.59.65.12,6.32-1.45,8.43-.5,2.01.9,2.34,3.18,4.82,3.91,1.75.52,5.31-2.5,8.53-1.01,3.23,1.49,6.21,5.44,7.23,6.63,1.29,1.5,2.47,4.9,2.51,10.54.1,13.35-8.43,43.16-12.65,42.46-1.54-.26,3.51-14.66,4.22-17.97.72-3.39-1-17.57-.9-20.58.07-2.15-.9-5.22-2.41-5.22Z"/>
        <polygon class="q" points="181.31 136.17 173.6 135.64 167.87 133.85 162.65 130.49 181.31 136.17"/>
        <path class="o" d="m220.94,136.09l-9.84.3s3.64-11.37,7.74-10.55c4.1.82,2.1,10.25,2.1,10.25"/>
        <path class="t" d="m196.75,103.73c-1.78-.69-4.04.17-4.62.24-.58.07-2.32.5-1.8,1.06.52.56,3.25.36,4.3.72,1.05.36,4.8.84,5.13.1.33-.73-3.01-2.12-3.01-2.12Z"/>
        <path class="t" d="m231.4,112.17c-2-.23-5.67.11-5.79,1.12-.11,1,4.22.91,5.56.89,1.34-.02,4.1-.45,3.93-1.1-.17-.65-3.71-.9-3.71-.9Z"/>
        <path class="t" d="m217.16,109c-2.01.11-5.57,1.06-5.52,2.07.06,1.01,4.31.19,5.63-.05,1.32-.24,3.97-1.13,3.69-1.75-.27-.61-3.8-.27-3.8-.27Z"/>
        <path class="w" d="m151.58,148.29s-1.26,2.86-2.86,2.01l1.36,3.66,1.51-5.67Z"/>
      </g>
      <g id="d" data-name="stein-r">
        <path class="k" d="m378.4,174.17c-1.14-10.83-8.16-28.7-18.12-34.92-9.95-6.21-23.84,1.14-27.17,2.19-.52.16-1.01.23-1.47.25.11-.11.21-.18.3-.21-.78-.07-4.31-1.5-4.31-1.5,0,0,.16.59.43,1.57l-.98-1.41c.34-.1.55-.16.55-.16l-.86-1-2.75-5.1-1.59-1.15.99-2.46-8.54-20.83c-.95-3.97-3.76-10.49-11.73-6.77-2.05.96-7.64,4.47-9.03,4.72-1.39.24-11.66-1.54-15.1-.29-6.73,2.46-8.1,3.87-9.62,4.15-1.52.28-9.48,5.72-11.29,5.49-1.81-.22-5.8-4.06-9.03-2.57-2.4,1.11-3.63,4.44-5.09,6.36v14.24c1.61,8.33,4.8,22.36,4.8,22.36l1.85.79-.53.85s.03,0,.04-.01l-1.14,1.96.79,2.49.35-.11.47.05,21.43,70.43s2.39,5.94,4.48,13.27c2.09,7.33,3.06,11.28,4.5,15.86,0,0,.06.23.17.6.36,1.47.54,3.19,1.69,4.55.5.98,1.06,1.76,1.65,1.96,1.25.42,3.4.53,6.1.42,1.94,0,4.33-.21,7.24-.66,9.1-1.16,20.39-3.57,27.44-5.8,9.65-3.05,21.61-8.2,29.38-11.8,3.03-1.4,4.24-3.44,4.59-5.42.29-.56.38-1.06.31-1.5-.05-.29-.15-.71-.29-1.23-.18-1.25-.57-2.28-.81-2.83-.41-1.35-.89-2.89-1.41-4.51-1.17-3.65-2.54-6.96-3.5-9.11,0-.05.02-.1.03-.15l3.51-3.58s-.08,0-.21-.03c3.08-2.37,7.22-4.86,7.66-6.51.73-2.74,11.09-15.59,13.33-21.65,1.84-4.97,1.64-10.49.5-21.31Zm-8.46,19.72c-1.58,4.86-9.2,13.26-13.92,15.67-1.74.89-3.3,1-4.56.78l-2.75-1.32-.18-.76-13.83-44.42c.04.09.06.13.06.13l-.24-.81c.02.13.05.24.07.33l-.45-1.44c0-.05,0-.11,0-.17l.38,1.28c-.1-.52-.17-1.31-.12-2.51.02-.37.12-.89.3-1.5.44-1.28,1.06-2.66,1.63-3.8,1.89-3.44,5.17-7.35,9.86-8.69,7.75-2.22,15.83,4.58,19.73,15.45,3.89,10.87,5.95,25.82,4.03,31.76Z"/>
        <polygon class="q" points="302.07 127.57 293.96 132.33 298.61 131.03 302.07 127.57"/>
        <path class="x" d="m324.43,135.19l6.61,19.82,15.08,48.44,3.87,16.58s2.66,5.33,4.68,11.65c1.24,3.86,2.29,7.34,2.51,8.57.57,3.24-7.87,10.14-43.7,20.32-35.83,10.18-33.43,1.89-34.87-2.68-1.44-4.57-2.42-8.53-4.5-15.85-2.09-7.33-4.48-13.27-4.48-13.27l-28.25-93.35,82.19-2.08.85,1.86Z"/>
        <path class="v" d="m323.63,133.63l-.81-2.06-1.6-.4.99-1.91-11.35-27.24s-4.76.53-13.22,2.33c-2.52.54-5.37,1.18-8.52,1.96-4.06,1-8.63,2.22-13.64,3.7-21.93,6.47-33.36,10.54-35.2,14.09-1.23,2.37,1.23,11.39,1.23,11.39l.1.68s11.51-.9,15.73-.6c5.42.38,24.24.8,24.24.8,0,0,6.6-.3,8.96-.38,2.59-.09,8.43-.83,13.02-.8,10.59.07,20.05-1.56,20.05-1.56Z"/>
        <path class="w" d="m318.99,130.62s-25.81,7.93-32.41,9.79c-6.6,1.86-39.19,11.81-39.19,11.81l.84.88-.53.85s33.77-10.56,39.51-12.26c5.74-1.7,26.56-7.71,26.56-7.71l5.22-3.36Z"/>
        <path class="q" d="m244.5,124.9l-4.43,1.4s.56,2.26,4.7,19.68l-.27-21.07Z"/>
        <path class="o" d="m270.11,119.78c2.7-.54,6.05,6.15,7.02,8.74.97,2.59,2.91,7.76,2.91,7.76l-8.73,3.21-1.44-3.92-1.86-5.08s-1.77-9.94,2.1-10.71Z"/>
        <path class="o" d="m305.82,113.74c1.26-1.09,4.57,1.45,5.26,4.12.69,2.67.3,7.21.3,7.21,0,0-3.53-2.99-4.24-5.21-.7-2.21-2.51-5.1-1.32-6.13Z"/>
        <polygon class="q" points="309.74 103.29 311.99 109.2 307.85 104.04 309.74 103.29"/>
        <path class="y" d="m270.99,148.5s8.51-1.47,9.34-1.74c.83-.26-10.25,3.7-10.25,3.7l-5.44,1.57,6.35-3.53Z"/>
        <polygon class="y" points="313.68 135 320.49 134.55 310.22 137.77 313.68 135"/>
        <path class="z" d="m324.43,135.15s2.95,2.52,6.28,1.47c3.32-1.05,17.21-8.41,27.16-2.19,9.96,6.22,16.98,24.09,18.12,34.92,1.14,10.83,1.34,16.34-.5,21.31-2.23,6.06-12.59,18.9-13.33,21.65-.73,2.74-11.69,7.8-10.98,10.78.71,2.97.4,1.25.4,1.25l-6.02-20.48s3.32,3.29,8.05.88c4.72-2.41,12.34-10.8,13.92-15.67,1.93-5.94-.13-20.89-4.03-31.76-3.89-10.87-11.98-17.68-19.73-15.45-7.75,2.22-11.68,11.45-11.79,14-.11,2.55.36,3.31.36,3.31l-7.92-24.01Z"/>
        <path class="j" d="m360.33,138.83l5.61,5.23s-3.06-1.47-3.92-2.26c-.86-.79-1.7-2.97-1.7-2.97Z"/>
        <path class="j" d="m367.99,159.24s3.31,14.79,3.24,18.92c-.07,4.13-1.04,10.68-1.04,10.68,0,0,2.59-7.22,2.21-12.73-.37-5.52-4.42-16.87-4.42-16.87Z"/>
        <path class="y" d="m324.43,135.11s4.82,1.82,5.23,1.69c.41-.13-2.21-.38-.44,6.22,1.78,6.59,3.49,7.46,6.23,5.07,0,0-4.18,6.02-3.43,10.01,0,.04-7.6-23-7.6-23Z"/>
        <path class="w" d="m345.56,203.85l5.47,18.75,3.68-3.75s-3.89-.29-4.92-4.99c-1.03-4.7.08-7.94.08-7.94l-4.31-2.06Z"/>
        <path class="z" d="m278.62,257.89s31.74-4.33,39.7-6.61c7.95-2.29,37.56-15.53,37.56-15.53,0,0,4.18,7.81-3.59,11.41-7.77,3.6-19.72,8.75-29.38,11.8-11.73,3.71-35.17,7.92-40.79,6.04-1.84-.61-3.5-7.11-3.5-7.11Z"/>
        <path class="y" d="m339.7,248.86s-14.66,4.18-18.13,5.5c-3.47,1.32-19.09,5.35-19.09,5.35,0,0,17.26-2.49,19.95-3.34,2.7-.85,17.27-7.51,17.27-7.51Z"/>
        <path class="j" d="m287.34,259.48s8.01-1.39,11.11-1.69c3.1-.29,7.19-1.81,7.19-1.81,0,0-7,3.12-8.66,3.65-1.66.52-9.64-.15-9.64-.15Z"/>
        <path class="j" d="m353.28,239.09s1.14,2.15.43,3.52c-.71,1.37-4.17,2.69-4.17,2.69l3.74-6.21Z"/>
        <path class="y" d="m333.11,181.57l15.96,48.8s-8.22-14.45-10.81-24.59c-2.6-10.14-5.15-24.21-5.15-24.21Z"/>
        <path class="w" d="m327.54,181.41s8.18,22.12,9.49,26.28c1.31,4.15,10.66,23.12,10.66,23.12,0,0-12.26-20.48-12.51-22.23-.25-1.75-7.64-27.16-7.64-27.16Z"/>
        <path class="u" d="m327.1,194.57l12.81,40.53s-6.44-11.32-8.47-19.25c-2.04-7.94-4.34-21.28-4.34-21.28Z"/>
        <path class="w" d="m326.15,196.06s3.31,18.02,4.34,21.27c1.02,3.25,8.34,18.1,8.34,18.1,0,0-9.6-16.04-9.79-17.41-.2-1.37-2.89-21.97-2.89-21.97Z"/>
        <path class="w" d="m269.62,224.75s5.85,11.87,7.17,16.02c1.31,4.15,2.81,12.65,2.81,12.65l-1.27-1.12s-1.96-8.05-2.66-10.26c-.7-2.21-6.04-17.29-6.04-17.29Z"/>
        <path class="y" d="m271.31,219.97s6.01,13.17,6.26,14.92c.25,1.75,4,16.28,4,16.28,0,0-1.28-11.51-2.53-16.44-1.15-4.5-7.73-14.76-7.73-14.76Z"/>
        <path class="y" d="m271.31,165.37s6.01,13.17,6.26,14.92c.25,1.75,4,16.28,4,16.28,0,0-1.28-11.51-2.53-16.44-1.15-4.5-7.73-14.76-7.73-14.76Z"/>
        <path class="y" d="m310.17,152.5s3.26,14.11,4.13,15.64c.87,1.54,6.75,15.35,6.75,15.35,0,0-6-9.9-8.02-14.58-1.84-4.27-2.86-16.41-2.86-16.41Z"/>
        <path class="w" d="m277.35,215.34l8.06,21.36,4.4,14.69s-1.59-12.34-2.48-15.39c-.93-3.19-9.98-20.66-9.98-20.66Z"/>
        <path class="w" d="m304.2,154.41l5.06,21.36,7.39,14.69s-4.59-12.34-5.48-15.39c-.93-3.19-6.98-20.66-6.98-20.66Z"/>
        <path class="w" d="m314.93,144.69l5.77,21.36,5.53,11.2s-2.72-8.84-3.61-11.9c-.93-3.19-7.69-20.66-7.69-20.66Z"/>
        <path class="w" d="m291.15,166.77l6.51,21.89,3.33,14.97s-.7-12.42-1.37-15.53c-.7-3.25-8.47-21.32-8.47-21.32Z"/>
        <polygon class="y" points="285.36 215.62 289.72 235.29 295.14 249.33 291.69 234.45 285.36 215.62"/>
        <polygon class="y" points="320.07 140.91 324.42 160.59 332.6 179.72 326.39 159.75 320.07 140.91"/>
        <polygon class="y" points="322.9 208.73 326.24 220.01 332.64 240.25 324.61 220.64 322.9 208.73"/>
        <polygon class="w" points="321.69 217.91 330.45 239.46 322.4 223.05 321.69 217.91"/>
        <polygon class="w" points="245.65 147.07 249.21 148.23 246.83 150.12 245.65 147.07"/>
        <polygon class="q" points="317.35 123.26 320.25 127.37 318.52 127.69 317.35 123.26"/>
        <path class="y" d="m303.54,225.36s.37,8.81,1.12,11.06c.75,2.25,3.75,8.25,3.75,8.25l-4.87-19.3Z"/>
        <path class="o" d="m265.31,122.67s-.04,7.35.38,9c1.31,5.25-1.87,10.49-1.87,10.49,0,0-2.25-3.76-2.25-8.81,0-5.43,3.75-10.68,3.75-10.68Z"/>
        <polygon class="w" points="278.87 165.56 285.62 184.93 291.59 200.35 284.1 186.11 278.87 165.56"/>
        <polygon class="w" points="263.65 165.24 266.99 176.52 273.39 196.76 265.36 177.15 263.65 165.24"/>
        <polygon class="y" points="257.3 165.89 266.01 191.7 257.76 171.98 257.3 165.89"/>
        <path id="e" data-name="droplet" class="j" d="m253,107.32s3.36-3.98,1.44-4.61c-1.91-.63-1.44,4.61-1.44,4.61Z"/>
        <path class="j" d="m249.01,166.55c-1-.01-1.77,3.4-.11,3.44,1.66.04,1.11-3.43.11-3.44Z"/>
        <path class="j" d="m247.34,131.43c.75-2.71,3.94-4.71,4.67-4.82,2.61-.4,4.56-2.54,6.28-2.66,2.16-.15,5.85-7.73,8.13-7.93,2.49-.22,4.08,2.18,6.32,2.11,3.21-.1,5.77-5.44,7.03-5.62,2.11-.3,5.53.17,6.82.1,1.29-.07,7.83-4.42,9.77-4.92,1.17-.3,6.9-3.98,8.54-3.85,1.64.12,6.01.57,6.82.35l1.28,3s.3-11.98-17.57-5.51c-2.13.77-5.54.76-6.93,1-1.39.24-9.94.85-14.21,1.66-7.04,1.33-7.96,2.88-9.48,3.16-1.52.28-7.29,4.67-9.1,4.45-1.81-.22-6.04-2.17-9.27-.68-3.23,1.49-5.52,5.12-6.93,5.8-1.41.69-6.88,1.81-4.4,7.21.97,2.12,5.17,9.6,7.56,21.32,2.31,11.29,5.77,20.73,7.28,20.43,1.29-.26-1.53-10.8-2.44-15.14-.87-4.14-.89-16.85-.17-19.44Z"/>
        <polygon class="q" points="303.85 135.19 309.17 135.29 313.78 133.98 318.99 130.62 303.85 135.19"/>
        <polygon class="y" points="279.91 136.34 271.31 139.5 270.08 136.09 279.91 136.34"/>
        <path class="y" d="m263.81,142.16s-2.09-3.99-2.09-6.4c0,0,4.2.02,4.2.04.19,2.16-2.1,6.37-2.1,6.37Z"/>
        <path class="t" d="m252,114.69c-1.26-1.44-3.66-1.72-4.2-1.93-.55-.21-2.28-.63-2.09.11.2.74,2.71,1.82,3.48,2.63.76.81,3.87,2.96,4.5,2.46.63-.5-1.69-3.27-1.69-3.27Z"/>
        <path class="t" d="m281.19,104.64c-2-.23-5.67.11-5.78,1.12-.11,1,4.22.91,5.56.89,1.34-.02,4.1-.45,3.93-1.1s-3.71-.9-3.71-.9Z"/>
        <path class="t" d="m273.26,113.84c-1.16-.26-3.47-.03-3.8.92-.33.95,2.32.97,3.14.98.82.01,2.61-.33,2.68-.95.07-.62-2.01-.95-2.01-.95Z"/>
        <path class="x" d="m332.64,150.17c-1.02.71-2.08-.53-2.08-.53l1,4.62s1.88-4.65,1.08-4.09Z"/>
        <path class="x" d="m326.54,137.67l1.2.45s.08,1.66.23,2.37c.15.71.23,2.45.23,2.45l-1.66-5.27Z"/>
      </g>
    </g>
    <g id="f" data-name="text-banner">
      <g>
        <path class="l" d="m419.37,242.55s-74.46-4.76-182.4-4.76-184.36,5.1-184.36,5.1l-6.45-47.03s90.1-8.44,189.77-8.44c73.61,0,150.36,4.43,180.35,6.37,2.09.14,3.96.26,5.58.37,1,.07,5.92-1.46,5.92-1.46l-8.41,49.86Z"/>
        <path class="s" d="m0,259.02s7.91,2.83,17.96,3.07c14.14.34,24.49-4.83,43.11-5.86,16.22-.9,35.18.34,35.18.34-10-18.97-34.83-14.83-34.83-14.83l-9.1-31.04s-10.91,3.45-26.12,2.76c-12.82-.58-26.2-4.82-26.2-4.82,0,0,11.07,19.3,19,27.92,0,0-9.31,14.48-19,22.45Z"/>
        <path class="s" d="m477,259.02s-7.91,2.83-17.96,3.07c-14.14.34-24.49-4.83-43.11-5.86-16.22-.9-35.18.34-35.18.34,10-18.97,34.83-14.83,34.83-14.83l9.1-31.04s10.9,3.45,26.12,2.76c12.82-.58,26.2-4.82,26.2-4.82,0,0-11.07,19.3-19,27.92,0,0,9.31,14.48,19,22.45Z"/>
        <path class="r" d="m420.21,242.96s-75.3-8.79-183.25-8.79-184.51,8.79-184.51,8.79l-7.59-50.37s91.39-8.79,191.06-8.79c94.15,0,192.1,8.79,192.1,8.79l-7.81,50.37Z"/>
        <g>
          <g class="m">
            <path class="p" d="m59.39,218.37c-.77-11.23,4.57-17.79,15.19-18.52,9.92-.68,15.31,4.39,16.04,14.96.78,11.28-4.7,18.05-15.18,18.77-9.67.67-15.33-4.74-16.05-15.21Zm19.97.39c-.63-9.12-2-12.2-5.36-11.97-2.81.19-3.71,2.47-3.3,8.34.63,9.12,2.01,12.3,5.26,12.08,2.86-.2,3.8-2.53,3.4-8.44Z"/>
            <path class="p" d="m95.21,206.08c-.11-2.06-.49-2.54-1.9-2.46-.55.03-1.3.12-1.3.12l-.49-.68.24-3.84s7.13-.35,8.03-.4c2.16-.12,8.62-.73,8.62-.73l-.1,4.53c-2.42.74-2.9,1.22-2.85,2.98l.63,17.58c.11,2.81.49,3.45,1.8,3.37,1.05-.06,1.6-.24,1.6-.24l.43.48-.22,4.24s-6.28.15-8.39.27c-3.16.18-8.31.71-8.31.71l.16-4.29c2.63-.7,3.19-1.49,3.03-4.3l-.97-17.36Zm11.04,7.49l5.25-6.99c.62-.69.97-1.61.92-2.37-.06-1.1-.58-1.48-2.14-1.49l-.33-.49.22-4.14s4.87-.12,7.18-.25c1.8-.1,7.21-.65,7.21-.65l.5.73-.24,3.79c-2.38,1.54-4.51,3.92-6.96,7.79l-1.94,3.08,5.22,8.87c1.66,2.83,3.04,4.06,5.17,4.24l.54.72-.34,3.74s-6.39.91-7.65.98c-2.61.15-4.02-.78-5.74-3.76l-7.02-12.29.17-1.52Z"/>
            <path class="p" d="m136.89,203.02c-2.76.12-3.16,1.39-3.38,6.98l-6.21.66s.04-7.45-.15-13.17l.62-.73,6,.3,15.76-.66,6.05-.81.68.67c.3,5.87.79,12.74.79,12.74l-6.21.66c-.76-6.2-1.06-7.2-3.77-7.08.06,4.98.24,11.76.52,18.39.11,2.56.85,3.44,2.76,3.36,1.25-.05,2.55-.26,2.55-.26l.26.29-.25,4.74s-7.34,0-10.21.13c-3.21.13-10.07.87-10.07.87l.21-4.63c4.1-.52,4.92-1.36,4.79-4.48l-.75-17.97Z"/>
            <path class="p" d="m159.09,212.86c-.31-11.25,5.29-17.59,15.94-17.88,9.95-.28,15.12,5.01,15.41,15.61.31,11.3-5.44,17.84-15.93,18.13-9.69.27-15.13-5.36-15.42-15.86Zm19.94,1.21c-.25-9.14-1.5-12.28-4.86-12.18-2.81.08-3.81,2.32-3.65,8.19.25,9.14,1.5,12.37,4.76,12.28,2.86-.08,3.91-2.37,3.74-8.3Z"/>
            <path class="p" d="m191.86,227.98l.4-4.53c2.6-.48,3.35-1.3,3.32-3.71l-.16-17.94c-.02-1.56-.48-2.31-1.39-2.3-.6,0-1.71.12-1.71.12l-.61-.6.56-4.03s6.88.02,8.49,0c1.66-.02,9.64-.47,9.64-.47,7.49-.09,11.49,2.63,11.55,7.8.04,3.77-2.24,6.01-4.78,7.74,3.03,1.02,6.31,2.74,6.37,7.21.08,6.98-4.75,10.56-14.34,10.67-1.51-.18-6.94-.47-8.25-.46-3.22.04-9.09.46-9.09.46Zm13.66-13.58l-.19,5.03c.02,1.61,1.13,2.3,3.69,2.27,2.46-.03,3.75-1.3,3.73-3.71-.02-1.71-1.19-3-3.26-3.63l-3.97.05Zm4.05-5.98s2.09-1.38,2.06-4.15c-.03-2.31-1.6-3.4-4.91-3.36-.65,0-.85.16-.9.71-.17,2.21-.28,6.28-.28,6.28,0,0,2.87.52,4.02.51Z"/>
            <path class="p" d="m240.93,221.59c4.32.03,5.23-.77,5.86-5.29l6.43-.41.6.76s-.93,4.87-1.47,10.34l-.76.8s-8.34-.4-16.13-.45c-5.18-.03-10.6.44-10.6.44l.48-4.62c2.52-.39,3.27-1.38,3.29-4.4l.16-16.83c.01-2.16-.23-2.71-1.34-2.72-.55,0-1.31.09-1.31.09l-.6-.71.48-3.96s7.13.2,11.71.22c6.28.04,12.71-.17,15.53-.51l.65.81s-.94,5.27-1.22,9.99l-6.94.41s.11-1.2.11-1.86c.01-2.26-.84-2.77-4.91-2.8-1.41,0-1.71.24-1.72,1.35l-.33,5.67c.95,0,2.71.07,4.12.08,1.51.01,5.53-.27,5.53-.27l.6.71-.74,5.77s-3.72-.17-6.03-.19c-1.46-.01-2.86.18-3.77.28-.06,1.71-.07,3.16-.08,4.27-.02,2.61.28,3.02,2.39,3.03Z"/>
            <path class="p" d="m269.34,216.33l-.08,3.41c-.07,3.11.27,3.48,3.48,3.7l.24.41-.6,4.21s-6.12-.34-8.23-.39c-3.72-.09-8.7.25-8.7.25l.56-4.61c2.47-.34,3.3-1.38,3.36-4.19l.4-17.43c.04-1.66-.25-2.22-1.25-2.24-.75-.02-1.76.06-1.76.06l-.49-.61.64-3.96s5.08.17,7.13.22c2.41.06,9.3-.09,9.3-.09,9.24.21,13.79,3.44,13.65,9.77-.09,3.92-2.22,7.09-6.25,9.35l2.99,5.3c1.64,2.9,3.31,4.5,4.77,4.53l.54.82-.54,3.66-7.8.37c-2.81-.06-4.39-1.36-5.62-4.7l-2.94-7.76-2.81-.06Zm4.1-5.74c2.28-.9,3.11-2.14,3.18-5,.07-2.86-1.66-4.21-5.58-4.3-.7-.02-.81.13-.88,1.09-.26,2.56-.42,5.07-.53,7.63l3.81.59Z"/>
            <path class="p" d="m306.36,223.12c1.51.06,2.93-.29,2.93-.29l.77.93-.85,5.4s-5.82-.37-8.18-.45c-5.17-.19-10.61.11-10.61.11l.62-4.6c2.53-.31,3.32-1.29,3.43-4.3l.67-16.82c.08-2.16-.15-2.72-1.25-2.76-.55-.02-1.31.05-1.31.05l-.58-.73.6-3.95s7.12.41,11.69.58c5.72.21,11.56.17,14.13-.08l.63.83s-.9,5.35-1.27,9.96l-6.95.15s.14-1.2.17-1.8c.08-2.16-.7-2.79-3.66-2.9-1.41-.05-1.72.19-1.76,1.29l-.59,6.51,4.16.2c1.46.05,5.29-.11,5.29-.11l.58.73-.92,5.75s-3.56-.28-5.77-.36c-1.46-.05-2.92.09-3.78.16l-.18,3.41c-.09,2.41.29,3.03,2,3.09Z"/>
            <path class="p" d="m335.28,224.37c4.32.21,5.26-.55,6.08-5.04l6.44-.14.57.78s-1.14,4.82-1.91,10.27l-.79.77s-8.32-.75-16.1-1.13c-5.17-.25-10.62-.01-10.62-.01l.68-4.6c2.53-.28,3.33-1.25,3.48-4.26l.86-16.81c.1-2.16-.12-2.72-1.22-2.77-.55-.03-1.31.04-1.31.04l-.57-.73.64-3.94s7.12.49,11.69.71c6.27.3,12.71.36,15.54.15l.61.83s-1.15,5.23-1.63,9.93l-6.95.12s.16-1.2.19-1.85c.11-2.26-.72-2.8-4.79-3-1.4-.07-1.72.17-1.77,1.27l-.57,5.66c.95.05,2.71.18,4.11.25,1.5.07,5.54-.03,5.54-.03l.57.73-.98,5.74s-3.71-.33-6.01-.44c-1.46-.07-2.87.06-3.78.12-.13,1.7-.2,3.16-.26,4.26-.13,2.61.16,3.03,2.27,3.13Z"/>
            <path class="p" d="m350.73,229.37l-.54-.94s1.19-4.91,1.54-8.22l6.35-.08c-.21,3.61,1.25,5.21,4.11,5.38,2.06.12,3.36-.61,3.43-1.86.13-2.21-3.37-3.42-6.89-5.29-3.71-1.93-7.43-4.56-7.13-9.78.38-6.47,6.8-10.37,16.08-9.83,5.52.33,9.5,1.97,9.5,1.97l.54,1.14s-1.2,4.16-1.87,8.65l-5.84.06-.58-.44.05-.8c.14-2.36-1.1-3.59-3.46-3.73-1.86-.11-3.21.72-3.29,2.07-.12,2.06,2.83,3.24,6.05,4.84,3.96,1.94,8.35,4.47,8.02,10.03-.38,6.52-6.58,10.13-16.32,9.56-5.87-.34-9.76-2.74-9.76-2.74Z"/>
            <path class="p" d="m389.31,206.82c-2.76-.19-3.29,1.03-4.13,6.57l-6.25-.03s.87-7.4,1.31-13.11l.7-.66,5.93.96,15.74,1.09,6.11-.13.6.75c-.36,5.87-.63,12.75-.63,12.75l-6.24-.03c-.07-6.25-.25-7.27-2.96-7.46-.5,4.95-1.06,11.71-1.52,18.33-.18,2.55.46,3.51,2.37,3.64,1.25.09,2.57.03,2.57.03l.23.32-.78,4.68s-7.3-.81-10.16-1c-3.21-.22-10.11-.25-10.11-.25l.72-4.58c4.13-.07,5.04-.81,5.26-3.92l1.24-17.95Z"/>
          </g>
          <g>
            <path class="j" d="m62.14,215.61c-.77-11.23,4.57-17.79,15.19-18.52,9.93-.68,15.31,4.38,16.04,14.96.78,11.28-4.7,18.05-15.18,18.77-9.67.66-15.33-4.74-16.05-15.21Zm19.97.39c-.63-9.12-2-12.2-5.36-11.97-2.81.19-3.71,2.47-3.3,8.34.63,9.12,2.01,12.3,5.26,12.08,2.86-.2,3.8-2.53,3.4-8.44Z"/>
            <path class="j" d="m97.96,203.32c-.11-2.06-.49-2.54-1.9-2.46-.55.03-1.3.12-1.3.12l-.49-.68.24-3.84s7.13-.35,8.03-.4c2.16-.12,8.61-.73,8.61-.73l-.1,4.53c-2.43.74-2.9,1.22-2.85,2.98l.63,17.58c.11,2.81.49,3.45,1.8,3.37,1.05-.06,1.6-.24,1.6-.24l.43.48-.22,4.24s-6.28.15-8.39.26c-3.16.18-8.31.71-8.31.71l.16-4.29c2.63-.7,3.19-1.49,3.03-4.3l-.97-17.36Zm11.04,7.49l5.25-6.99c.62-.69.97-1.61.93-2.36-.06-1.1-.59-1.48-2.15-1.49l-.33-.49.22-4.14s4.88-.12,7.18-.25c1.8-.1,7.21-.65,7.21-.65l.49.73-.24,3.79c-2.38,1.54-4.51,3.92-6.96,7.78l-1.94,3.08,5.23,8.87c1.67,2.83,3.04,4.06,5.17,4.24l.54.72-.34,3.74s-6.39.91-7.65.98c-2.61.15-4.02-.78-5.74-3.76l-7.02-12.29.17-1.52Z"/>
            <path class="j" d="m139.64,200.26c-2.76.12-3.16,1.39-3.38,6.98l-6.21.66s.04-7.44-.15-13.17l.62-.73,6,.3,15.76-.66,6.05-.81.68.68c.3,5.87.79,12.74.79,12.74l-6.21.66c-.76-6.2-1.05-7.2-3.77-7.09.06,4.98.24,11.76.52,18.39.11,2.56.85,3.44,2.76,3.36,1.25-.05,2.55-.26,2.55-.26l.26.29-.26,4.74s-7.34,0-10.2.12c-3.21.13-10.07.87-10.07.87l.21-4.64c4.1-.52,4.92-1.36,4.79-4.48l-.75-17.97Z"/>
            <path class="j" d="m161.84,210.09c-.31-11.25,5.29-17.59,15.94-17.88,9.95-.28,15.12,5.01,15.41,15.61.31,11.3-5.44,17.84-15.94,18.13-9.69.27-15.13-5.36-15.42-15.86Zm19.94,1.21c-.25-9.14-1.49-12.27-4.86-12.18-2.81.08-3.81,2.32-3.64,8.19.25,9.14,1.5,12.37,4.76,12.28,2.86-.08,3.9-2.37,3.74-8.3Z"/>
            <path class="j" d="m194.62,225.22l.4-4.53c2.61-.48,3.35-1.3,3.32-3.71l-.16-17.94c-.02-1.56-.48-2.31-1.39-2.3-.6,0-1.71.12-1.71.12l-.61-.6.56-4.03s6.88.02,8.49,0c1.66-.02,9.64-.47,9.64-.47,7.49-.09,11.49,2.63,11.55,7.8.05,3.77-2.24,6.01-4.78,7.74,3.02,1.02,6.31,2.74,6.36,7.21.08,6.98-4.75,10.56-14.34,10.67-1.51-.18-6.94-.47-8.25-.46-3.21.04-9.09.46-9.09.46Zm13.66-13.57l-.19,5.03c.02,1.61,1.13,2.3,3.69,2.27,2.46-.03,3.75-1.3,3.73-3.71-.02-1.71-1.19-3-3.26-3.63l-3.97.05Zm4.05-5.98s2.09-1.38,2.06-4.14c-.03-2.31-1.6-3.4-4.91-3.36-.65,0-.85.16-.89.72-.17,2.21-.28,6.28-.28,6.28,0,0,2.87.52,4.03.51Z"/>
            <path class="j" d="m243.68,218.82c4.32.03,5.23-.77,5.86-5.29l6.43-.41.6.76s-.94,4.87-1.47,10.34l-.76.8s-8.34-.4-16.13-.45c-5.18-.03-10.6.44-10.6.44l.48-4.62c2.52-.39,3.27-1.39,3.29-4.4l.16-16.83c.01-2.16-.23-2.71-1.34-2.72-.55,0-1.31.09-1.31.09l-.6-.71.48-3.97s7.13.19,11.71.23c6.28.04,12.71-.17,15.53-.51l.65.81s-.94,5.27-1.22,9.99l-6.94.41s.11-1.21.12-1.86c.01-2.26-.84-2.77-4.91-2.79-1.4,0-1.71.24-1.72,1.35l-.34,5.68c.95,0,2.71.07,4.12.08,1.51,0,5.53-.27,5.53-.27l.6.71-.74,5.77s-3.72-.17-6.03-.19c-1.45,0-2.86.18-3.77.28-.06,1.71-.07,3.17-.08,4.27-.02,2.61.28,3.02,2.39,3.03Z"/>
            <path class="j" d="m272.09,213.56l-.08,3.42c-.07,3.12.27,3.47,3.48,3.7l.24.41-.6,4.21s-6.12-.34-8.23-.39c-3.72-.08-8.7.25-8.7.25l.56-4.61c2.47-.35,3.3-1.38,3.37-4.19l.4-17.43c.04-1.66-.25-2.22-1.25-2.24-.76-.02-1.76.06-1.76.06l-.49-.62.65-3.96s5.07.17,7.13.22c2.41.05,9.3-.09,9.3-.09,9.24.21,13.79,3.44,13.65,9.76-.09,3.92-2.22,7.09-6.25,9.35l2.99,5.3c1.64,2.9,3.31,4.5,4.77,4.53l.53.82-.54,3.66-7.8.37c-2.81-.07-4.39-1.36-5.62-4.7l-2.94-7.76-2.81-.06Zm4.1-5.74c2.28-.9,3.12-2.14,3.18-5,.07-2.86-1.66-4.21-5.58-4.3-.7-.02-.81.13-.88,1.09-.26,2.56-.42,5.07-.53,7.63l3.81.59Z"/>
            <path class="j" d="m309.11,220.35c1.51.06,2.93-.29,2.93-.29l.77.93-.85,5.4s-5.82-.37-8.18-.45c-5.17-.19-10.61.11-10.61.11l.62-4.6c2.52-.31,3.31-1.29,3.43-4.3l.67-16.82c.08-2.16-.15-2.72-1.25-2.76-.55-.02-1.31.05-1.31.05l-.58-.73.59-3.95s7.13.41,11.7.58c5.73.21,11.56.18,14.13-.08l.62.83s-.9,5.35-1.27,9.96l-6.94.15s.14-1.2.17-1.8c.08-2.16-.7-2.79-3.67-2.9-1.4-.05-1.72.19-1.76,1.29l-.59,6.51,4.16.2c1.46.05,5.28-.11,5.28-.11l.58.73-.92,5.75s-3.56-.28-5.77-.36c-1.46-.05-2.92.09-3.78.16l-.18,3.41c-.09,2.41.29,3.03,2,3.09Z"/>
            <path class="j" d="m338.03,221.61c4.32.21,5.26-.55,6.08-5.04l6.45-.14.56.78s-1.14,4.83-1.9,10.27l-.79.77s-8.32-.75-16.1-1.13c-5.17-.25-10.62,0-10.62,0l.68-4.6c2.53-.28,3.33-1.25,3.48-4.26l.86-16.81c.1-2.16-.12-2.72-1.22-2.78-.55-.03-1.31.04-1.31.04l-.57-.73.64-3.94s7.12.49,11.69.71c6.27.3,12.71.36,15.54.15l.61.83s-1.15,5.23-1.63,9.93l-6.95.12s.16-1.2.19-1.85c.11-2.26-.72-2.8-4.79-3-1.41-.07-1.72.17-1.77,1.27l-.57,5.66c.95.05,2.71.18,4.11.25,1.5.07,5.53-.03,5.53-.03l.57.73-.99,5.74s-3.71-.33-6.01-.44c-1.46-.07-2.87.06-3.78.12-.13,1.71-.2,3.16-.26,4.27-.13,2.61.16,3.03,2.26,3.13Z"/>
            <path class="j" d="m353.48,226.6l-.55-.94s1.19-4.91,1.54-8.22l6.35-.08c-.21,3.61,1.25,5.21,4.11,5.38,2.06.12,3.36-.61,3.43-1.86.13-2.21-3.37-3.42-6.89-5.29-3.71-1.93-7.43-4.56-7.13-9.78.38-6.47,6.8-10.37,16.08-9.83,5.52.33,9.5,1.97,9.5,1.97l.53,1.14s-1.2,4.16-1.87,8.65l-5.84.06-.58-.44.05-.8c.14-2.36-1.1-3.59-3.45-3.73-1.86-.11-3.21.72-3.29,2.07-.12,2.06,2.83,3.24,6.06,4.84,3.97,1.94,8.35,4.47,8.02,10.03-.39,6.52-6.59,10.13-16.32,9.56-5.87-.34-9.76-2.74-9.76-2.74Z"/>
            <path class="j" d="m392.06,204.05c-2.76-.19-3.3,1.03-4.13,6.57l-6.24-.03s.86-7.4,1.31-13.11l.7-.66,5.93.96,15.74,1.09,6.1-.13.6.75c-.36,5.87-.63,12.75-.63,12.75l-6.24-.03c-.07-6.25-.25-7.27-2.96-7.46-.49,4.95-1.06,11.71-1.52,18.33-.18,2.56.46,3.51,2.37,3.64,1.26.09,2.57.03,2.57.03l.23.32-.78,4.68s-7.3-.81-10.16-1.01c-3.21-.22-10.11-.24-10.11-.24l.72-4.58c4.13-.07,5.04-.81,5.26-3.92l1.24-17.95Z"/>
          </g>
        </g>
      </g>
    </g>
    <g id="g" data-name="text-ring">
      <text class="h" transform="translate(149.21 84.57) rotate(-38.57)"><tspan x="0" y="0"> </tspan></text>
      <text class="h" transform="translate(152.52 81.94) rotate(-36.88)"><tspan x="0" y="0"> </tspan></text>
      <text class="h" transform="translate(155.9 79.4) rotate(-35.19)"><tspan x="0" y="0"> </tspan></text>
      <text class="h" transform="translate(159.37 76.96) rotate(-33.5)"><tspan x="0" y="0"> </tspan></text>
      <text class="h" transform="translate(162.9 74.63) rotate(-31.82)"><tspan x="0" y="0"> </tspan></text>
      <text class="h" transform="translate(166.37 72.36) rotate(-28.72)"><tspan x="0" y="0">S</tspan></text>
      <text class="h" transform="translate(176.38 66.86) rotate(-24.16)"><tspan x="0" y="0">A</tspan></text>
      <text class="h" transform="translate(185.75 62.61) rotate(-20.23)"><tspan x="0" y="0">T</tspan></text>
      <text class="h" transform="translate(196.39 58.63) rotate(-15.33)"><tspan x="0" y="0">U</tspan></text>
      <text class="h" transform="translate(209.53 55.05) rotate(-10.14)"><tspan x="0" y="0">R</tspan></text>
      <text class="h" transform="translate(221.91 52.82) rotate(-5.04)"><tspan x="0" y="0">D</tspan></text>
      <text class="h" transform="translate(234.66 51.71) rotate(-.18)"><tspan x="0" y="0">A</tspan></text>
      <text class="h" transform="translate(246.05 51.68) rotate(4.15)"><tspan x="0" y="0">Y</tspan></text>
      <text class="h" transform="translate(256.86 52.55) rotate(7.13)"><tspan x="0" y="0"> </tspan></text>
      <text class="h" transform="translate(260.98 52.91) rotate(10.74)"><tspan x="0" y="0">O</tspan></text>
      <text class="h" transform="translate(274.73 55.56) rotate(15.86)"><tspan x="0" y="0">C</tspan></text>
      <text class="h" transform="translate(285.98 58.76) rotate(20.36)"><tspan x="0" y="0">T</tspan></text>
      <text class="h" transform="translate(296.71 62.85) rotate(23.43)"><tspan x="0" y="0"> </tspan></text>
      <text class="h" transform="translate(300.56 64.42) rotate(26.4)"><tspan x="0" y="0">4</tspan></text>
      <text class="i" transform="translate(163.35 317.02) rotate(30.87)"><tspan x="0" y="0"> </tspan></text>
      <text class="i" transform="translate(170.02 321.31) rotate(25.14)"><tspan x="0" y="0">G</tspan></text>
      <text class="i" transform="translate(190.21 330.5) rotate(17.05)"><tspan x="0" y="0">E</tspan></text>
      <text class="i" transform="translate(208.61 336.01) rotate(9.53)"><tspan x="0" y="0">E</tspan></text>
      <text class="i" transform="translate(227.58 339.03) rotate(2.15)"><tspan x="0" y="0">L</tspan></text>
      <text class="i" transform="translate(244.8 339.78) rotate(-5.63)"><tspan x="0" y="0">O</tspan></text>
      <text class="i" transform="translate(268.64 337.26) rotate(-15.12)"><tspan x="0" y="0">N</tspan></text>
      <text class="i" transform="translate(290.91 331.11) rotate(-23.58)"><tspan x="0" y="0">G</tspan></text>
      <text class="i" transform="translate(310.57 322.06) rotate(-29.39)"><tspan x="0" y="0"> </tspan></text>
    </g>
  </g>
</svg>