<?xml version="1.0" encoding="UTF-8"?>
<svg xmlns="http://www.w3.org/2000/svg" viewBox="0 0 458.85 405.32">
  <defs>
    <style>
      .b {
        stroke: #dbdcdd;
        stroke-width: 3px;
      }

      .b, .c, .d {
        fill: none;
        stroke-miterlimit: 10;
      }

      .e {
        opacity: .16;
      }

      .e, .f, .g, .h, .i, .j, .k, .l, .m, .n, .o, .p, .q, .r, .s, .t, .u, .v, .w, .x, .y, .z, .aa, .ab, .ac, .ad, .ae, .af, .ag, .ah, .ai, .aj, .ak, .al, .am, .an, .ao, .ap, .aq, .ar, .as, .at, .au, .av, .aw, .ax, .ay, .az {
        stroke-width: 0px;
      }

      .e, .h {
        mix-blend-mode: multiply;
      }

      .e, .h, .w {
        fill: #42362f;
      }

      .f {
        fill: #d8ae93;
        opacity: .75;
      }

      .g {
        opacity: .85;
      }

      .g, .af {
        fill: #e2ae96;
      }

      .h {
        opacity: .1;
      }

      .c {
        stroke: #8a181d;
        stroke-width: 2px;
      }

      .ba {
        fill: #386c49;
        stroke: #386c49;
      }

      .bb {
        fill: #1d4a2e;
        stroke: #1d4a2e;
      }

      .bc {
        fill: #3f754f;
        stroke: #3f754f;
      }

      .d {
        stroke: #fff;
      }

      .bd {
        isolation: isolate;
      }

      .i {
        fill: rgba(35, 31, 32, .5);
      }

      .j {
        fill: #231f20;
        mix-blend-mode: darken;
        opacity: .06;
      }

      .k {
        fill: #f2f2f2;
      }

      .l {
        fill: #47392d;
      }

      .m {
        fill: #79a9c4;
      }

      .n {
        fill: #4e3f32;
      }

      .o {
        fill: #483813;
      }

      .p {
        fill: #5a8563;
      }

      .q {
        fill: #808184;
      }

      .r {
        fill: #86bedc;
      }

      .s {
        fill: #5a4a42;
      }

      .t {
        fill: #58595b;
      }

      .u {
        fill: #846b4f;
      }

      .v {
        fill: #372a04;
      }

      .x {
        fill: #1d749f;
      }

      .y {
        fill: #c5a388;
      }

      .z {
        fill: #d43b3c;
      }

      .aa {
        fill: #ddbd74;
      }

      .ab {
        fill: #ca9d81;
      }

      .ac {
        fill: #caa78c;
      }

      .ad {
        fill: #ccc;
      }

      .ae {
        fill: #af9a6e;
      }

      .ag {
        fill: #df8f89;
      }

      .ah {
        fill: #e2baa2;
      }

      .ai {
        fill: #d5b093;
      }

      .aj {
        fill: #dbdcdd;
      }

      .ak {
        fill: #b2977c;
      }

      .al {
        fill: #af463a;
      }

      .am {
        fill: #a95339;
      }

      .an {
        fill: #cfab8f;
      }

      .ao {
        fill: #ceaa8e;
      }

      .ap {
        fill: #666;
      }

      .aq {
        fill: #f1f1f2;
      }

      .ar {
        fill: #fff;
      }

      .as {
        fill: #e9ad00;
      }

      .at {
        fill: #e3e4e5;
      }

      .au {
        fill: #e3ba9b;
      }

      .av {
        fill: #edc3bc;
      }

      .aw {
        fill: #ffbf1e;
      }

      .ax {
        fill: #e5c1a4;
      }

      .ay {
        fill: #fbda99;
      }

      .az {
        fill: #eaebec;
      }
    </style>
  </defs>
  <g class="bd">
    <g id="a" data-name="Layer 1">
      <path class="au" d="m5.56,42.51c0-5.31,11.33-28.21,35.77-28.21,26.21,0,40.43,16.91,40.43,22.21l2.89,30.43-14.17,31.04,14.23,8.5v281.63c0,5.3-4.43,9.61-9.89,9.61H13.01c-5.46,0-9.89-4.3-9.89-9.61V106.27l13.33-8.28-13.33-30.6,2.44-24.88Z"/>
      <path class="ao" d="m14.94,91.2s16.72,16.88,26.95,16.88c10.81,0,30.95-17.33,30.95-17.33l-2.67,4.01c-4.52,5.12-15.38,16.91-28.58,17.32-9.11.28-20.69-11.74-25.03-16.72l-1.63-4.16Z"/>
      <path class="u" d="m39.53,54.96s-6.66-2.67-10.07-2.22c-3.41.45-9.63,4.3-9.63,4.3,0,0,7.22-2.86,9.77-2.96,2.61-.1,10.22,2.22,10.22,2.22l-.3-1.33Z"/>
      <path class="af" d="m53.15,325.64c0-6.21,5.04-11.25,11.25-11.25s11.26,5.04,11.26,11.25-5.04,11.26-11.26,11.26-11.25-5.04-11.25-11.26Z"/>
      <path class="af" d="m11.83,325.64c0-6.21,5.04-11.25,11.25-11.25s11.26,5.04,11.26,11.25-5.04,11.26-11.26,11.26-11.25-5.04-11.25-11.26Z"/>
      <path class="az" d="m66.74,61.58c0,2.45-4.43,4.61-9.24,4.61s-8.18-2.16-8.18-4.61c0,0,3.9-4.44,8.71-4.44s8.71,4.44,8.71,4.44Z"/>
      <path class="az" d="m84.82,397.36s-14.34,7.96-41.37,7.96c-24.51,0-40.15-7.96-40.15-7.96v-56.35s7.64,4.44,40.37,4.44c29.47,0,41.15-4.44,41.15-4.44v56.35Z"/>
      <path class="h" d="m43.88,261.09c-.2,1.63.04,21.83.04,24.53s-.15,36.67-.15,40.45.15,49.08.31,52.85c.15,3.78,0,25.89,0,25.89h-2.3v-7.82c0-5.12.15-123.75.25-133.03.11-9.28.72-13.84.72-13.84,0,0,1.33,9.35,1.13,10.97Z"/>
      <polygon class="x" points="84.6 206.42 3.53 206.42 3.53 133.95 9.02 99.4 16.35 99.4 10.86 134.38 43.9 139.78 76.19 134.41 70.38 99.4 79 99.46 84.69 133.67 84.6 206.42"/>
      <polygon class="ae" points="16.59 97.74 18.61 97.67 15.71 93.67 16.59 97.74"/>
      <path class="az" d="m76.39,146.64s-11.79,7.01-32.56,7.01c-19.28,0-33.31-7.01-33.31-7.01v-14.56l32.87,6.21,33.01-6.21v14.56Z"/>
      <path class="az" d="m84.82,317.83s-10.34,3.97-41.15,3.97c-33.62,0-40.37-3.97-40.37-3.97v-123.88h81.52v123.88Z"/>
      <path class="al" d="m84.99,307.58s-11.33,4.29-41.43,4.29-40.27-4.19-40.27-4.19l-.05-117.1s10.89,5.67,41.32,5.67,40.43-5,40.43-5v116.33Z"/>
      <line class="d" x1="23.97" y1="157.6" x2="64.26" y2="157.6"/>
      <line class="d" x1="24.22" y1="166.55" x2="64.01" y2="157.75"/>
      <line class="d" x1="63.81" y1="166.55" x2="24.02" y2="157.75"/>
      <line class="d" x1="24.22" y1="175.17" x2="64.01" y2="166.37"/>
      <line class="d" x1="63.81" y1="175.17" x2="24.02" y2="166.37"/>
      <line class="d" x1="24.22" y1="175.17" x2="64.15" y2="175.17"/>
      <path class="d" d="m44.26,175.45c-.15.54,1.15,1.73,2.91,2.66,1.75.93,3.29,1.25,3.44.71.15-.54-1.16-1.73-2.91-2.66-1.75-.93-3.29-1.25-3.44-.71Z"/>
      <line class="d" x1="44.1" y1="175.36" x2="51.23" y2="174.4"/>
      <path class="d" d="m44.4,175.45c.15.54-1.16,1.73-2.91,2.66-1.75.93-3.29,1.25-3.44.71-.15-.54,1.16-1.73,2.91-2.66,1.75-.93,3.29-1.25,3.44-.71Z"/>
      <line class="d" x1="44.56" y1="175.36" x2="37.43" y2="174.4"/>
      <path class="az" d="m84.03,259.03c0,5.46-5.8,9.89-12.96,9.89H16.8c-7.16,0-12.96-4.43-12.96-9.89,0,0,5.8-69.42,12.96-69.42h54.27c7.16,0,12.96,69.42,12.96,69.42Z"/>
      <g>
        <rect class="aj" x="11.17" y="171.03" width="30.21" height="40.87"/>
        <rect class="aa" x="13.39" y="181.97" width="25.77" height="27.27"/>
        <path class="aq" d="m39.16,181.93H13.39l-.04-10.91-2.03.07s1.38-2.24,2.74-2.29c1.12-.04,5.59,1.47,5.59,1.47,0,0,3.71-1.38,5.22-1.32,1.25.05,5.01,1.32,5.01,1.32,0,0,5.9-1.28,7.73-1.02,1.35.19,3.78,1.78,3.78,1.78l-2.22-.15v11.05Z"/>
        <path class="b" d="m11.72,201.91h0c-5.09,0-9.22-3.7-9.22-8.26v-2.59c0-4.56,4.13-8.26,9.22-8.26h0"/>
      </g>
      <g>
        <rect class="aj" x="47.52" y="171.03" width="30.21" height="40.87"/>
        <rect class="aa" x="49.75" y="181.97" width="25.77" height="27.27"/>
        <path class="aq" d="m49.75,181.93h25.77l.04-10.91,2.03.07s-1.38-2.24-2.74-2.29c-1.12-.04-5.6,1.47-5.6,1.47,0,0-3.71-1.38-5.22-1.32-1.25.05-5.01,1.32-5.01,1.32,0,0-5.9-1.28-7.73-1.02-1.35.19-3.78,1.78-3.78,1.78l2.22-.15v11.05Z"/>
        <path class="b" d="m77.18,201.91h0c5.09,0,9.22-3.7,9.22-8.26v-2.59c0-4.56-4.13-8.26-9.22-8.26h0"/>
      </g>
      <path class="au" d="m10.5,184.36c0,1.34-4.44,6.66-6.29,6.66l.62.07c-1.86,0-3.36-1.09-3.36-2.43v-5.04c0-1.34.14-5.11,2-5.11l-2-32.8c.44,0,2.76-4.7,3.55-1.33,2.56,10.82,5.48,39.99,5.48,39.99Z"/>
      <path class="az" d="m5.02,144.37l-3.55,1.33s-4.54-35.69,2.37-41.78c2.17-1.91,5.28-5.9,5.28-5.9l-4.98,34.94.89,11.4Z"/>
      <path class="ay" d="m11.69,153.11l5.33,1.04c.74.3-.6-7.08,0-11.55,1.09-8.13.3-26.42.3-28.14,0-2.67-.3-14.8-.74-16.42-.44-1.63-4.44-27.41-4.44-27.41l-8.59-.59s1.63,25.33,3.41,34.95c1.43,7.73,8.89,34.95,8,37.02-.89,2.07-3.26,11.11-3.26,11.11Z"/>
      <path class="au" d="m77.74,184.21c0,1.34,4.44,6.67,6.29,6.67l-.62.06c1.86,0,3.36-1.08,3.36-2.43v-5.04c0-1.34-.14-5.11-2-5.11l2-32.8c-.44,0-2.76-4.7-3.55-1.33-2.56,10.81-5.48,39.99-5.48,39.99Z"/>
      <path class="az" d="m82.77,146.67l3.85,1.92s4.51-41.09-3.7-46.51c-2.41-1.6-4.92-3.67-4.92-3.67l5.76,34.17-.99,14.09Z"/>
      <path class="ay" d="m75.07,153.55l-5.33,1.04c-.74.29.6-7.08,0-11.55-1.09-8.14-1.32-28.34-1.32-30.07,0-2.67-.59-12.44-.15-14.07.44-1.63,4-28.29,4-28.29l12.57-2.52s-4.03,21.64-4.74,29.47c-.89,9.77-9.18,42.8-8.29,44.87.89,2.07,3.26,11.11,3.26,11.11Z"/>
      <g>
        <path class="c" d="m23.06,140.19c.33.86-.91,2.14-2.77,2.85-1.86.71-3.64.59-3.97-.27-.33-.86.91-2.14,2.77-2.85,1.86-.71,3.64-.59,3.97.27Z"/>
        <path class="c" d="m15.93,142.76c-.36.85-2.14.91-3.97.13-1.84-.78-3.03-2.1-2.67-2.95.36-.85,2.14-.91,3.98-.13,1.83.78,3.03,2.1,2.67,2.95Z"/>
        <line class="c" x1="16.32" y1="142.78" x2="12.19" y2="146.77"/>
        <line class="c" x1="16.32" y1="142.78" x2="19.55" y2="146.35"/>
      </g>
      <g>
        <path class="c" d="m77.71,140.19c.33.86-.91,2.14-2.77,2.85-1.86.71-3.64.59-3.97-.27-.33-.86.91-2.14,2.77-2.85,1.86-.71,3.64-.59,3.97.27Z"/>
        <path class="c" d="m70.58,142.76c-.36.85-2.14.91-3.98.13-1.84-.78-3.03-2.1-2.67-2.95.36-.85,2.14-.91,3.98-.13,1.84.78,3.03,2.1,2.67,2.95Z"/>
        <line class="c" x1="70.97" y1="142.78" x2="66.84" y2="146.77"/>
        <line class="c" x1="70.97" y1="142.78" x2="74.2" y2="146.35"/>
      </g>
      <path class="o" d="m54.15,62.3c0-2.13,1.73-3.87,3.87-3.87s3.87,1.73,3.87,3.87-1.73,3.87-3.87,3.87-3.87-1.73-3.87-3.87Z"/>
      <path class="at" d="m58.94,59.88c.67.22,1.33.56,1.33.89s-.89.33-1.22.11c-.33-.22-.11-1-.11-1Z"/>
      <path class="az" d="m20.29,61.58c0,2.45,4.28,4.67,9.09,4.67s8.33-2.22,8.33-4.67c0,0-3.9-4.44-8.71-4.44s-8.71,4.44-8.71,4.44Z"/>
      <path class="o" d="m32.89,62.3c0-2.13-1.73-3.87-3.87-3.87s-3.87,1.73-3.87,3.87,1.73,3.87,3.87,3.87,3.87-1.73,3.87-3.87Z"/>
      <path class="at" d="m29.6,59.88c.67.22,1.33.56,1.33.89s-.89.33-1.22.11c-.33-.22-.11-1-.11-1Z"/>
      <path class="u" d="m48.12,54.96s6.66-2.67,10.07-2.22c3.41.45,9.63,4.3,9.63,4.3,0,0-7.22-2.86-9.77-2.96-2.61-.1-10.22,2.22-10.22,2.22l.3-1.33Z"/>
      <polygon class="ai" points="49.6 86.43 47.75 88.72 41.34 88.71 40.1 86.32 45.9 61.44 49.6 86.43"/>
      <path class="ax" d="m47.19,86.41l-6.5.13c-.81-.02-.94-.63-.91-1.61l1.44-23.81h4.89l1.73,23.74c.07,1.06-.04,1.55-.65,1.55Z"/>
      <path class="ag" d="m54.89,93.02s-5.69,5.74-12.48,5.74-11.62-5.52-11.62-5.52c0,0,3.17-.26,7.92-1.03,1.3-.21,2.36.21,3.81.21s3.05-.44,4.29-.25c4.85.75,8.07.84,8.07.84Z"/>
      <path class="ar" d="m50.71,94.06s-5.44,1.11-8.06,1.11-7.38-1.03-7.38-1.03c0,0,4.71-.04,7.33-.04s8.11-.04,8.11-.04Z"/>
      <path class="g" d="m15.02,77.21c0-4.79,3.88-8.66,8.66-8.66s8.66,3.88,8.66,8.66-3.88,8.66-8.66,8.66-8.66-3.88-8.66-8.66Z"/>
      <path class="g" d="m52.78,77.21c0-4.79,3.88-8.66,8.66-8.66s8.66,3.88,8.66,8.66-3.88,8.66-8.66,8.66-8.66-3.88-8.66-8.66Z"/>
      <path class="ak" d="m37.71,61.58s-5.81-2.52-8.7-2.44c-2.89.07-8.72,2.44-8.72,2.44,0,0,.34-5.11,8.2-5.11,9.19,0,9.22,5.11,9.22,5.11Z"/>
      <path class="ak" d="m49.24,61.58s5.98-2.59,8.87-2.52c2.89.07,8.55,2.52,8.55,2.52,0,0-.33-4.96-8.04-4.96-9.55,0-9.39,4.96-9.39,4.96Z"/>
      <path class="t" d="m37.05,61.26s.43-1.17.44-1.77c0,0-.4,1.11-.77,1.59l.33.18Z"/>
      <path class="t" d="m36.22,60.87s.24-1.22.17-1.81c0,0-.23,1.16-.53,1.68l.35.13Z"/>
      <path class="t" d="m34.94,60.4s.32-1.2.28-1.8c0,0-.3,1.14-.63,1.65l.35.15Z"/>
      <path class="t" d="m33.6,59.9s.29-1.21.24-1.81c0,0-.27,1.15-.59,1.66l.35.14Z"/>
      <path class="t" d="m32.02,59.43s.21-1.23.12-1.82c0,0-.19,1.16-.47,1.7l.36.12Z"/>
      <path class="t" d="m30.57,59.07s.02-1.24-.16-1.82c0,0-.02,1.18-.22,1.75l.37.07Z"/>
      <path class="t" d="m29.07,58.96s-.06-1.24-.27-1.8c0,0,.06,1.18-.1,1.76l.37.04Z"/>
      <path class="t" d="m27.73,59.09s-.22-1.23-.5-1.75c0,0,.21,1.16.12,1.76h.38Z"/>
      <path class="t" d="m26.46,59.32s-.27-1.21-.58-1.73c0,0,.26,1.15.2,1.75l.38-.02Z"/>
      <path class="t" d="m25.02,59.76s-.27-1.21-.58-1.73c0,0,.26,1.15.2,1.75l.38-.02Z"/>
      <path class="t" d="m23.46,60.32s-.27-1.21-.58-1.73c0,0,.26,1.15.2,1.75l.38-.02Z"/>
      <path class="t" d="m22.02,61.01s-.27-1.21-.58-1.73c0,0,.26,1.15.2,1.75l.38-.02Z"/>
      <path class="t" d="m20.65,61.54s-.27-1.21-.58-1.73c0,0,.26,1.15.2,1.75l.38-.02Z"/>
      <path class="t" d="m49.99,61.26s-.43-1.17-.45-1.77c0,0,.4,1.11.77,1.59l-.33.18Z"/>
      <path class="t" d="m50.83,60.87s-.24-1.22-.17-1.81c0,0,.23,1.16.52,1.68l-.35.13Z"/>
      <path class="t" d="m52.11,60.4s-.32-1.2-.28-1.8c0,0,.3,1.14.63,1.65l-.35.15Z"/>
      <path class="t" d="m53.45,59.9s-.29-1.21-.24-1.81c0,0,.27,1.15.59,1.66l-.35.14Z"/>
      <path class="t" d="m55.03,59.43s-.21-1.23-.12-1.82c0,0,.19,1.16.48,1.7l-.36.12Z"/>
      <path class="t" d="m56.48,59.07s-.02-1.24.16-1.82c0,0,.02,1.18.22,1.75l-.37.07Z"/>
      <path class="t" d="m57.98,58.96s.06-1.24.28-1.8c0,0-.06,1.18.1,1.76l-.38.04Z"/>
      <path class="t" d="m59.32,59.09s.21-1.23.5-1.75c0,0-.21,1.16-.12,1.76h-.38Z"/>
      <path class="t" d="m60.59,59.32s.27-1.21.58-1.73c0,0-.26,1.15-.2,1.75l-.38-.02Z"/>
      <path class="t" d="m62.03,59.76s.27-1.21.58-1.73c0,0-.26,1.15-.2,1.75l-.38-.02Z"/>
      <path class="t" d="m63.59,60.32s.27-1.21.58-1.73c0,0-.26,1.15-.2,1.75l-.38-.02Z"/>
      <path class="t" d="m65.03,61.01s.27-1.21.58-1.73c0,0-.26,1.15-.2,1.75l-.38-.02Z"/>
      <path class="t" d="m66.31,61.51s.27-1.21.58-1.73c0,0-.26,1.15-.2,1.75l-.38-.02Z"/>
      <path class="ay" d="m3.54,70.03C-3.13,32.11,20.01,10.57,42.34,10.57s43.84,11.29,42.96,40.36c-.04,1.47-.29,15.34-.45,16.88-.02.22-4.91,10.69-6.66,12.44-2.65,2.66-2.86-3.34-5.63-5.48-1.42-1.09,1.22-14.74-.34-15.98-8.48-6.71-16.65-28.01-16.65-28.01-3.11,8.44-40.99,26.43-43.87,42.21-.34,1.85-7.71-.47-8.15-2.96Z"/>
      <path class="av" d="m39.05,97.02s2.03.51,2.4.51c.37,0-.51.45-1.27.29-.44-.09-1.13-.8-1.13-.8Z"/>
      <polygon class="y" points="40.01 86.32 40.9 87.93 46.78 87.98 47.64 86.32 40.01 86.32"/>
      <path class="au" d="m186.41,42.22c0-5.31,11.33-28.21,35.77-28.21,26.21,0,40.43,16.91,40.43,22.21,0,0-3.8,49.11-3.82,49.58-.15,3.85-8.66,12.14-8.66,12.14l10.81,6,3.11,2.81,1.36,4.4.13,276.67c0,5.31-4.43,9.61-9.89,9.61h-61.8c-5.46,0-9.89-4.3-9.89-9.61V112.09l2.3-3.82,1.22-4.18,9.81-6.4s-6.93-7.94-8.26-11.23l-2.63-44.25Z"/>
      <path class="ao" d="m193.37,92.69s19.14,12.29,29.38,12.29c10.81,0,31.93-12.18,31.93-12.18l-3.66,3.89s-11.09,12.22-27.99,12.11c-14.75-.1-26.1-11.77-26.33-12.11l-3.33-4Z"/>
      <path class="s" d="m229.96,54.33s7.22-2.09,10.67-1.63c2.25.3,6.86,1.44,8.99,2.45,1.13.53.74,1.28.74,1.28,0,0-7.16-1.76-9.74-1.8-4.61-.07-10.94,2.74-10.94,2.74l.28-3.04Z"/>
      <path class="s" d="m216.5,54.33s-7.22-2.09-10.67-1.63c-2.25.3-6.86,1.44-8.99,2.45-1.13.53-.74,1.28-.74,1.28,0,0,7.16-1.76,9.74-1.8,4.61-.07,10.94,2.74,10.94,2.74l-.28-3.04Z"/>
      <path class="f" d="m196.23,76.91c0-4.78,3.88-8.66,8.66-8.66s8.66,3.88,8.66,8.66-3.88,8.66-8.66,8.66-8.66-3.88-8.66-8.66Z"/>
      <path class="f" d="m234,76.91c0-4.78,3.88-8.66,8.66-8.66s8.66,3.88,8.66,8.66-3.88,8.66-8.66,8.66-8.66-3.88-8.66-8.66Z"/>
      <path class="az" d="m216.08,61.29c0,1.46-3.9,3.96-8.71,3.96s-8.71-2.82-8.71-3.96c0,0,3.9-4.44,8.71-4.44s8.71,4.44,8.71,4.44Z"/>
      <path class="o" d="m203.21,62.01c0-2.14,1.73-3.87,3.87-3.87s3.87,1.73,3.87,3.87-1.73,3.41-3.87,3.41-3.87-1.27-3.87-3.41Z"/>
      <path class="at" d="m208,60.42c.67.17,1.33.41,1.33.66s-.89.25-1.22.08c-.33-.17-.11-.74-.11-.74Z"/>
      <path class="ac" d="m198.42,61.36s6.11-2.23,9-2.15c2.89.07,8.93,2.22,8.93,2.22,0,0-3.57-5.1-8.38-5.1-5.7,0-9.55,5.04-9.55,5.04Z"/>
      <path class="t" d="m199.33,61.13s-.43-.9-.44-1.37c0,0,.4.86.77,1.23l-.33.14Z"/>
      <path class="t" d="m200.17,60.82s-.25-.94-.17-1.4c0,0,.23.89.53,1.3l-.35.1Z"/>
      <path class="t" d="m201.44,60.46s-.32-.93-.28-1.39c0,0,.3.88.63,1.27l-.35.12Z"/>
      <path class="t" d="m202.78,60.08s-.29-.94-.24-1.4c0,0,.27.89.59,1.29l-.35.11Z"/>
      <path class="t" d="m204.36,59.71s-.21-.95-.12-1.41c0,0,.19.9.47,1.31l-.36.09Z"/>
      <path class="t" d="m205.81,59.43s-.02-.96.16-1.41c0,0,.02.91.21,1.35l-.37.05Z"/>
      <path class="t" d="m207.31,59.35s.06-.96.27-1.39c0,0-.06.91.1,1.36l-.37.03Z"/>
      <path class="t" d="m208.65,59.45s.21-.95.5-1.36c0,0-.21.9-.12,1.36h-.38Z"/>
      <path class="t" d="m209.91,59.61s.27-.94.58-1.33c0,0-.26.89-.21,1.35l-.37-.02Z"/>
      <path class="t" d="m211.46,59.88s.27-.94.58-1.34c0,0-.26.89-.2,1.35l-.38-.02Z"/>
      <path class="t" d="m212.92,60.25s.27-.94.58-1.34c0,0-.26.89-.21,1.35l-.37-.02Z"/>
      <path class="t" d="m214.36,60.66s.27-.94.58-1.34c0,0-.26.89-.2,1.35l-.37-.02Z"/>
      <path class="t" d="m215.64,61.12s.27-.94.58-1.34c0,0-.26.89-.21,1.35l-.38-.02Z"/>
      <path class="n" d="m216.14,61.51c.12-.65-4.83-2.39-8.98-2.39s-9.27,2.5-9.27,2.5c0,0,6.32-1.66,9.45-1.66s8.81,1.54,8.81,1.54Z"/>
      <path class="ax" d="m227.3,86.11l-6.5.13c-.81-.02-.94-.63-.91-1.61l1.44-23.81h4.89l1.73,23.74c.07,1.05-.04,1.55-.65,1.55Z"/>
      <polygon class="y" points="220.11 86.02 221 87.63 226.89 87.69 227.74 86.02 220.11 86.02"/>
      <path class="az" d="m265.67,397.06s-14.34,7.96-41.37,7.96c-24.51,0-40.15-7.96-40.15-7.96v-56.35s7.64,4.44,40.37,4.44c29.47,0,41.15-4.44,41.15-4.44v56.35Z"/>
      <path class="r" d="m265.38,268.18h-81.45l.04-158.17s.51-2.82,1-3.7c.57-1.02,2.97-2.8,2.97-2.8l9.36-5.82,6.77,8.91,20.14,10.96,19.85-11.55,6.07-8.07,12.65,6.77s1.46,1.22,1.86,1.89c.41.69.9,2.81.9,2.81l-.16,158.76Z"/>
      <polygon class="w" points="196.36 217.01 190.37 217.01 190.43 102.11 196.42 98.31 196.36 217.01"/>
      <path class="m" d="m211.1,110.46l-9.11,7.7s-7.88-11.39-7.04-18.88l2.33-1.58,6.18,8.32,7.63,4.44Z"/>
      <path class="m" d="m227.02,120.31c7.77-2.59,10.96-4.22,13.4-6.96l-3.85-2.89-9.55,5.55v4.29Z"/>
      <path class="m" d="m221.45,120.45c-5.9-2.15-11.68-4-14.86-7.48l3.33-3.11,11.53,6.29v4.29Z"/>
      <path class="aq" d="m209.99,113.86c0-.65.53-1.19,1.18-1.19s1.18.53,1.18,1.19-.53,1.19-1.18,1.19-1.18-.53-1.18-1.19Z"/>
      <path class="i" d="m202,118.16s7.85-6.88,8.89-7.41c1.04-.52,5.03,2.3,5.03,2.3,0,0-13.1,5.11-13.54,5.41-.44.29-.37-.3-.37-.3Z"/>
      <path class="q" d="m235.46,113.86c0-.65.17-1.19.37-1.19s.37.53.37,1.19-.17,1.19-.37,1.19-.37-.53-.37-1.19Z"/>
      <path class="i" d="m245.35,118.42s-7.85-6.89-8.89-7.4c-1.04-.52-4.96,2.67-4.96,2.67,0,0,13.03,4.74,13.48,5.04.44.3.37-.3.37-.3Z"/>
      <polygon class="w" points="258.71 219.68 252.72 219.68 252.72 99.35 258.68 102.6 258.71 219.68"/>
      <polygon class="m" points="227.76 224.94 221.69 224.94 221.24 115.94 224.17 117.68 227.02 116.01 227.76 224.94"/>
      <path class="m" d="m236.33,110.79l9.11,7.7s7.87-11.39,7.03-18.88l-2.34-1.58-6.18,8.32-7.63,4.44Z"/>
      <path class="aq" d="m223.13,121.68c0-.65.53-1.19,1.18-1.19s1.18.53,1.18,1.19-.53,1.18-1.18,1.18-1.18-.53-1.18-1.18Z"/>
      <path class="aq" d="m223.13,137.23c0-.65.53-1.18,1.18-1.18s1.18.53,1.18,1.18-.53,1.19-1.18,1.19-1.18-.53-1.18-1.19Z"/>
      <path class="aq" d="m223.13,152.85c0-.65.53-1.18,1.18-1.18s1.18.53,1.18,1.18-.53,1.19-1.18,1.19-1.18-.53-1.18-1.19Z"/>
      <path class="aq" d="m223.13,168.55c0-.66.53-1.19,1.18-1.19s1.18.53,1.18,1.19-.53,1.18-1.18,1.18-1.18-.53-1.18-1.18Z"/>
      <path class="aq" d="m223.13,184.25c0-.65.53-1.18,1.18-1.18s1.18.53,1.18,1.18-.53,1.18-1.18,1.18-1.18-.53-1.18-1.18Z"/>
      <path class="aq" d="m223.13,199.87c0-.65.53-1.18,1.18-1.18s1.18.53,1.18,1.18-.53,1.19-1.18,1.19-1.18-.53-1.18-1.19Z"/>
      <path class="w" d="m254.12,163.99s-13.03,2.67-30.21,2.67-30.21-2.67-30.21-2.67v-18.88s9.77,2.67,30.51,2.67c17.18,0,29.92-2.67,29.92-2.67v18.88Z"/>
      <path class="w" d="m265.45,293.51s-13.4,5.33-41.24,5.33c-26.36,0-40.28-5.33-40.28-5.33v-80.86s13.33,5.33,40.28,5.33,41.24-5.33,41.24-5.33v80.86Z"/>
      <path class="af" d="m233.04,325.35c0-6.21,5.04-11.25,11.26-11.25s11.25,5.04,11.25,11.25-5.04,11.25-11.25,11.25-11.26-5.04-11.26-11.25Z"/>
      <path class="af" d="m191.72,325.35c0-6.21,5.04-11.25,11.25-11.25s11.26,5.04,11.26,11.25-5.04,11.25-11.26,11.25-11.25-5.04-11.25-11.25Z"/>
      <g>
        <rect class="aj" x="225.97" y="176.23" width="30.21" height="40.88"/>
        <rect class="aa" x="228.19" y="187.17" width="25.77" height="27.27"/>
        <path class="aq" d="m228.19,187.13h25.77l.04-10.91,2.03.07s-1.38-2.24-2.74-2.29c-1.12-.04-5.6,1.47-5.6,1.47,0,0-3.71-1.38-5.22-1.32-1.25.05-5.01,1.32-5.01,1.32,0,0-5.9-1.28-7.73-1.02-1.35.19-3.78,1.78-3.78,1.78l2.22-.14v11.05Z"/>
        <path class="b" d="m255.62,207.11h0c5.09,0,9.22-3.7,9.22-8.26v-2.59c0-4.56-4.13-8.26-9.22-8.26h0"/>
      </g>
      <path class="au" d="m257.79,189.21c-.13,1.33-1.18,16.04.67,16.22l2.67,1.22c1.85.18,3.76-2.55,3.89-3.89l-.14-4.86c.13-1.34,1.65-5.1-.2-5.28l.78-7.74.22-28.1c-2.89.22-7.89,32.43-7.89,32.43Z"/>
      <path class="ac" d="m215.32,65.73s-5.11.74-7.33.67c-2.22-.07-8.96-1.33-8.96-1.33,0,0,6.37,2.81,8.7,2.74,2.33-.08,7.59-2.07,7.59-2.07Z"/>
      <path class="az" d="m230.58,61.29c0,1.46,3.9,3.96,8.71,3.96s8.71-2.57,8.71-3.96c0,0-3.9-4.44-8.71-4.44s-8.71,4.44-8.71,4.44Z"/>
      <path class="o" d="m243.45,62.01c0-2.14-1.73-3.87-3.87-3.87s-3.87,1.73-3.87,3.87,1.73,3.41,3.87,3.41,3.87-1.27,3.87-3.41Z"/>
      <path class="at" d="m242.64,61.15c-.59-.35-1.23-.65-1.41-.48-.18.17.45.8.8.92.35.12.6-.45.6-.45Z"/>
      <path class="ac" d="m248.24,61.36s-6.11-2.23-9-2.15c-2.89.07-8.93,2.22-8.93,2.22,0,0,3.56-5.1,8.38-5.1,5.7,0,9.55,5.04,9.55,5.04Z"/>
      <path class="ac" d="m231.34,65.73s5.11.74,7.33.67c2.22-.07,8.96-1.33,8.96-1.33,0,0-6.37,2.81-8.7,2.74-2.33-.08-7.59-2.07-7.59-2.07Z"/>
      <rect class="aj" x="207.47" y="139.49" width="1.63" height="60.28"/>
      <path class="aj" d="m208.17,139.78c5.39.06,5.69-6.61,5.75-8.22.05-1.61-.28-10.89-.28-10.89h-.5v10.94c0,1.61-.72,4.58-4.16,4.58h-1.62c-3.44,0-4.17-2.97-4.17-4.58v-10.94h-.5s-.33,9.27-.28,10.89c.06,1.61.31,8.28,5.69,8.22h.07Z"/>
      <polygon class="aj" points="208.69 138.23 208.81 120.79 208.14 120.79 207.92 138.28 208.69 138.23"/>
      <polygon class="am" points="233.74 126.53 234.71 125.7 235.13 127.79 233.79 127.37 233.74 126.53"/>
      <polygon class="am" points="186.83 125.32 186.46 126.66 185.37 126.91 185.53 124.31 186.83 125.32"/>
      <path class="am" d="m233.87,126.95c0,2.7-9.82,5.37-23.58,5.37s-24.09-3.35-23.91-5.87c.13-1.8,1.45-3.83,6.2-3.65,5.49.21,10.8,2.03,17.55,2.03,7.12,0,12.37-1.77,17.58-1.36,4.86.38,6.16,2.18,6.16,3.48Z"/>
      <path class="au" d="m210.22,171.29c1.05.91,4.97,4.95.44,11.8-3.29,4.97-9.78.36-8.94-2.34,0,0-8.91-.25-17.8-8.83v-16.59c9.25,5.1,26.29,15.96,26.29,15.96Z"/>
      <path class="ab" d="m212.91,91.96s8.39-.98,10.4-.98,10.81.98,10.81.98c0,0-7.79,4.42-10.66,4.42s-10.55-4.42-10.55-4.42Z"/>
      <path class="ar" d="m218.32,92.5l10.48-.15s-5.13,1.28-5.65,1.28-4.83-1.13-4.83-1.13Z"/>
      <path class="an" d="m230.57,83.65s4.15,2.66,4.74,3.85c.59,1.18,1.33,5.48,1.33,5.48,0,0,0-5.18-.44-6.07-.44-.89-5.63-3.26-5.63-3.26Z"/>
      <path class="an" d="m216.65,83.65s-4.15,2.66-4.74,3.85c-.59,1.18-1.33,5.48-1.33,5.48,0,0,0-5.18.44-6.07.44-.89,5.63-3.26,5.63-3.26Z"/>
      <path class="s" d="m247.61,38.78s-6.49-2.94-8.81-2.96c-10.77-.11-39.1,2.33-39.1,2.33,0,0-1.85,5.37-3.33,7.29-1.48,1.92-4.74,10.66-4.74,15.85v7.11l-2.52.3-.59-9.03-1.04.15s-5.33-19.25,1.92-27.25c2.7-2.97,8.45-13.16,17.03-15.7,8-2.37,18.36-4.74,28.29-1.48,6.7,2.2,22.58,9.13,26.21,15.4,4.89,8.44.3,25.18.3,25.18l-.89.59-2.07,9.92-2.07-.3s.59-8,.44-10.66c-.15-2.67-3.11-9.04-4.74-12.15-1.63-3.11-4.29-4.59-4.29-4.59Z"/>
      <polygon class="bb" points="253.84 23.54 255.29 26.21 259.34 24.82 253.84 23.54"/>
      <path class="p" d="m214.98.77c1.4-1.54,5.63-.03,8,.27,2.36.3,10.08-1.83,12.58-.72,8.38,3.73,20.84,27.8,20.84,27.8,0,0-23.26,6.1-34.98,6.57-31.17,1.24-28.06-6.98-28.06-6.98,0,0,5.79-8.29,9.59-11.93,3.81-3.65,5.02-7.27,12.02-15Z"/>
      <path class="az" d="m209.03,28.71c12.46,0,45.43-4,45.43-4l1.11,2.11s-35.77,4.33-47.1,4.33-13.55-5.66-13.55-5.66l1.33-1.89s.33,5.11,12.77,5.11Z"/>
      <path class="ba" d="m243.75,31.65c7.88.31,16.27,1.77,17.12.88.68-.72,5.26-7.49,3.19-8.22-2.07-.72-9.58,3.14-11.31,3.61-4.1,1.12-5.8,2.15-9.12,3.32l.14.41Z"/>
      <path class="bc" d="m243.61,31.89c-2.11.6-7.9,1.58-11.62,2.3-8.09,1.56-39.91,4.9-43.62,1.19-2.61-2.61,1.6-6.3,2.52-7.64l3.47-1.03s.74,4.5,5.8,5.49c9.42,1.84,32.14-.52,33.08-.74.64-.15,6.52-.41,10.13-.28l.23.71Z"/>
      <path class="h" d="m224.67,262.83c-.1,3.5.4,20.09.4,22.79s-.2,36.67-.2,40.45.2,49.08.4,52.85c.2,3.78,0,25.89,0,25.89h-3.03v-7.82c0-5.12.87-123.93,1.01-133.21.14-9.28.51-14.92.51-14.92,0,0,.96,12.32.91,13.98Z"/>
      <polygon class="ae" points="68.38 98.43 66.88 98.41 68.63 96.32 68.38 98.43"/>
      <path class="t" d="m247.32,60.95s.43-.9.44-1.37c0,0-.4.86-.77,1.23l.33.14Z"/>
      <path class="t" d="m246.48,60.65s.25-.94.17-1.4c0,0-.23.89-.53,1.3l.35.1Z"/>
      <path class="t" d="m245.2,60.28s.32-.93.28-1.39c0,0-.3.88-.63,1.28l.35.12Z"/>
      <path class="t" d="m243.86,59.9s.29-.93.24-1.4c0,0-.27.89-.59,1.29l.35.11Z"/>
      <path class="t" d="m242.28,59.53s.21-.95.12-1.41c0,0-.19.9-.47,1.31l.36.09Z"/>
      <path class="t" d="m240.83,59.25s.02-.96-.16-1.4c0,0-.02.91-.21,1.35l.37.05Z"/>
      <path class="t" d="m239.33,59.17s-.06-.96-.27-1.39c0,0,.06.91-.1,1.36l.37.03Z"/>
      <path class="t" d="m237.99,59.27s-.21-.95-.5-1.36c0,0,.21.9.12,1.36h.38Z"/>
      <path class="t" d="m236.74,59.43s-.27-.94-.58-1.34c0,0,.26.89.2,1.35l.38-.02Z"/>
      <path class="t" d="m235.19,59.7s-.27-.94-.58-1.34c0,0,.26.89.21,1.35l.37-.02Z"/>
      <path class="t" d="m233.72,60.07s-.27-.94-.58-1.34c0,0,.26.89.2,1.36l.38-.02Z"/>
      <path class="t" d="m232.28,60.48s-.27-.94-.58-1.34c0,0,.26.89.21,1.36l.37-.02Z"/>
      <path class="t" d="m231,60.94s-.27-.94-.58-1.34c0,0,.26.89.21,1.36l.37-.02Z"/>
      <path class="n" d="m230.51,61.33c-.12-.65,4.83-2.39,8.98-2.39s9.27,2.5,9.27,2.5c0,0-6.32-1.66-9.45-1.66s-8.81,1.54-8.81,1.54Z"/>
      <path class="l" d="m37.83,61.76c.12-.78-4.83-2.87-8.98-2.87s-9.27,3-9.27,3c0,0,6.32-1.99,9.45-1.99s8.81,1.86,8.81,1.86Z"/>
      <path class="l" d="m49.24,61.76c-.12-.78,4.83-2.87,8.98-2.87s9.27,3,9.27,3c0,0-6.32-1.99-9.45-1.99s-8.81,1.86-8.81,1.86Z"/>
      <path class="j" d="m63.8,14.98c6.47,1.8,8.44,4.93,9.88,6.29,3.06,2.88,5.19,5.95,6.98,8.63,6.11,9.11,4.89,30.1,4.18,37.91l-1.85,9.11-3.16,22.95s3.5,1.76,4.56,3.62c4.96,8.74,4.04,26.69,2.04,44.13l-1.66,30.75c2-.07,2,5.11,2,5.11l.05,3.05s1.49,2.24,1.18,7.01c-.26,3.99-2.71,6.38-2.71,6.38l-.47,197.45s-5.56,4.48-17.07,5.92c0,0-2.08-157.09-2.52-209.25-.57-67.43,2.19-135.77,1.98-163.23-.06-7.24-3.41-15.82-3.41-15.82Z"/>
      <path class="j" d="m235.75,1.13c4.05-1.35,17.86,22.35,17.86,22.35,3.78.33,6,1.19,6,1.19,10.72-3.04,2.81,5.11,1.93,7.66,0,0,2.22,2.95,1.74,7.81-1.67,16.77-3.37,26.89-3.56,28.88l-1.11,18.1-8.22,11.22s13.71,6.97,14.66,8.88c.45.9.58,33.9.66,77.35,0,2.08-.84,6.38-.84,6.57,0,.7.65.87.9,1.53.49,1.3.81,3.5.81,4.49,0,2.16-.84,5.12-.84,5.48,0,84.5-.07,194.52-.07,194.52,0,0-4.12,3.23-17.43,5.03,0,0-.09-130.6-2.52-218.51-1.94-70.37,4.72-86.02,4.72-86.02l-6.07-66.87-8.63-29.66Z"/>
      <path class="ah" d="m379.41,42.22c0-5.31,11.33-28.21,35.77-28.21,26.21,0,40.43,16.91,40.43,22.21,0,0-3.8,49.11-3.82,49.58-.15,3.85-8.66,12.14-8.66,12.14l10.81,6,3.11,2.81,1.36,4.4.13,276.67c0,5.31-4.43,9.61-9.89,9.61h-61.8c-5.46,0-9.89-4.3-9.89-9.61V112.09l2.3-3.82,1.22-4.18,9.81-6.4s-6.93-7.94-8.26-11.23l-2.63-44.25Z"/>
      <path class="ao" d="m386.37,92.69s11.59,13.18,29.48,13.74c19.1.59,31.83-13.63,31.83-13.63l-3.66,3.89s-11.09,12.22-27.99,12.11c-14.75-.1-26.1-11.77-26.33-12.11l-3.33-4Z"/>
      <path class="ap" d="m422.96,54.33s7.22-2.09,10.67-1.63c2.25.3,6.86,1.44,8.99,2.45,1.13.53.74,1.28.74,1.28,0,0-7.16-1.76-9.74-1.8-4.61-.07-10.94,2.74-10.94,2.74l.28-3.04Z"/>
      <path class="ap" d="m409.5,54.33s-7.22-2.09-10.67-1.63c-2.25.3-6.86,1.44-8.99,2.45-1.13.53-.74,1.28-.74,1.28,0,0,7.16-1.76,9.74-1.8,4.61-.07,10.94,2.74,10.94,2.74l-.28-3.04Z"/>
      <path class="f" d="m389.23,76.91c0-4.78,3.88-8.66,8.66-8.66s8.66,3.88,8.66,8.66-3.88,8.66-8.66,8.66-8.66-3.88-8.66-8.66Z"/>
      <path class="f" d="m427,76.91c0-4.78,3.88-8.66,8.66-8.66s8.66,3.88,8.66,8.66-3.88,8.66-8.66,8.66-8.66-3.88-8.66-8.66Z"/>
      <path class="az" d="m409.08,61.29c0,1.46-3.9,3.96-8.71,3.96s-8.71-2.82-8.71-3.96c0,0,3.9-4.44,8.71-4.44s8.71,4.44,8.71,4.44Z"/>
      <path class="v" d="m393.21,62.01c0-2.14,1.73-3.87,3.87-3.87s3.87,1.73,3.87,3.87-.96,2.41-3.1,2.41-4.64-.28-4.64-2.41Z"/>
      <path class="at" d="m398,60.42c.67.17,1.33.41,1.33.66s-.89.25-1.22.08c-.33-.17-.11-.74-.11-.74Z"/>
      <path class="ac" d="m391.42,61.36s6.11-2.23,9-2.15c2.89.07,8.93,2.22,8.93,2.22,0,0-3.57-5.1-8.38-5.1-5.7,0-9.55,5.04-9.55,5.04Z"/>
      <path class="t" d="m392.33,61.13s-.43-.9-.44-1.37c0,0,.4.86.77,1.23l-.33.14Z"/>
      <path class="t" d="m393.17,60.82s-.25-.94-.17-1.4c0,0,.23.89.53,1.3l-.35.1Z"/>
      <path class="t" d="m394.44,60.46s-.32-.93-.28-1.39c0,0,.3.88.63,1.27l-.35.12Z"/>
      <path class="t" d="m395.78,60.08s-.29-.94-.24-1.4c0,0,.27.89.59,1.29l-.35.11Z"/>
      <path class="t" d="m397.36,59.71s-.21-.95-.12-1.41c0,0,.19.9.47,1.31l-.36.09Z"/>
      <path class="t" d="m398.81,59.43s-.02-.96.16-1.41c0,0,.02.91.21,1.35l-.37.05Z"/>
      <path class="t" d="m400.31,59.35s.06-.96.27-1.39c0,0-.06.91.1,1.36l-.37.03Z"/>
      <path class="t" d="m401.65,59.45s.21-.95.5-1.36c0,0-.21.9-.12,1.36h-.38Z"/>
      <path class="t" d="m402.91,59.61s.27-.94.58-1.33c0,0-.26.89-.21,1.35l-.37-.02Z"/>
      <path class="t" d="m404.46,59.88s.27-.94.58-1.34c0,0-.26.89-.2,1.35l-.38-.02Z"/>
      <path class="t" d="m405.92,60.25s.27-.94.58-1.34c0,0-.26.89-.21,1.35l-.37-.02Z"/>
      <path class="t" d="m407.36,60.66s.27-.94.58-1.34c0,0-.26.89-.2,1.35l-.37-.02Z"/>
      <path class="t" d="m408.64,61.12s.27-.94.58-1.34c0,0-.26.89-.21,1.35l-.38-.02Z"/>
      <path class="n" d="m409.14,61.51c.12-.65-4.83-2.39-8.98-2.39s-9.27,2.5-9.27,2.5c0,0,6.32-1.66,9.45-1.66s8.81,1.54,8.81,1.54Z"/>
      <path class="ax" d="m420.3,86.11l-6.5.13c-.81-.02-.94-.63-.91-1.61l1.44-23.81h4.89l1.73,23.74c.07,1.05-.04,1.55-.65,1.55Z"/>
      <polygon class="y" points="413.11 86.02 414 87.63 419.89 87.69 420.74 86.02 413.11 86.02"/>
      <path class="ah" d="m458.67,397.06s-14.34,7.96-41.37,7.96c-24.51,0-40.15-7.96-40.15-7.96v-56.35s7.64,4.44,40.37,4.44c29.47,0,41.15-4.44,41.15-4.44v56.35Z"/>
      <path class="aw" d="m458.38,268.18h-81.45l.04-158.17s.51-2.82,1-3.7c.57-1.02,2.97-2.8,2.97-2.8l9.36-5.82,4.56,7.73,10,8,12,32,12-30,10-9,4.28-8.48,12.65,6.77s1.46,1.22,1.86,1.89c.41.69.9,2.81.9,2.81l-.16,158.76Z"/>
      <polygon class="k" points="389.36 190.36 383.37 190.36 383.43 101.26 389.42 98.31 389.36 190.36"/>
      <path class="as" d="m404.1,110.46l-9.11,7.7s-7.88-11.39-7.04-18.88l2.33-1.58,6.18,8.32,7.63,4.44Z"/>
      <polygon class="k" points="451.71 192.42 445.72 192.42 445.72 99.12 451.68 101.63 451.71 192.42"/>
      <path class="as" d="m420.76,164.42h-6.07s3.45-32.19,5.11-36.61c1.75-4.64,6.45-14.88,6.45-14.88l4.93-1.51.85,1.53s-4.88,10.86-6.63,15.72c-1.51,4.22-4.63,35.74-4.63,35.74Z"/>
      <path class="as" d="m413.95,164.42h6.07s-3.45-32.19-5.11-36.61c-1.75-4.64-6.45-14.88-6.45-14.88l-4.93-1.51-.85,1.53s4.88,10.86,6.63,15.72c1.51,4.22,4.63,35.74,4.63,35.74Z"/>
      <path class="as" d="m429.33,110.79l9.11,7.7s7.87-11.39,7.03-18.88l-2.34-1.58-6.18,8.32-7.63,4.44Z"/>
      <path class="aq" d="m413.13,139.68c0-.65.53-1.19,1.18-1.19s1.18.53,1.18,1.19-.53,1.18-1.18,1.18-1.18-.53-1.18-1.18Z"/>
      <path class="aq" d="m410.13,125.68c0-.65.53-1.19,1.18-1.19s1.18.53,1.18,1.19-.53,1.18-1.18,1.18-1.18-.53-1.18-1.18Z"/>
      <path class="aq" d="m405.13,114.68c0-.65.53-1.19,1.18-1.19s1.18.53,1.18,1.19-.53,1.18-1.18,1.18-1.18-.53-1.18-1.18Z"/>
      <path class="aq" d="m416.13,158.23c0-.65.53-1.18,1.18-1.18s1.18.53,1.18,1.18-.53,1.19-1.18,1.19-1.18-.53-1.18-1.19Z"/>
      <path class="aq" d="m416.13,184.25c0-.65.53-1.18,1.18-1.18s1.18.53,1.18,1.18-.53,1.18-1.18,1.18-1.18-.53-1.18-1.18Z"/>
      <path class="aq" d="m416.13,199.87c0-.65.53-1.18,1.18-1.18s1.18.53,1.18,1.18-.53,1.19-1.18,1.19-1.18-.53-1.18-1.19Z"/>
      <path class="k" d="m458.85,203.89s-17.69,3.62-41,3.62-41-3.62-41-3.62v-25.62s13.26,3.62,41.4,3.62c23.31,0,40.6-3.62,40.6-3.62v25.62Z"/>
      <path class="z" d="m458.45,293.51s-13.4,5.33-41.24,5.33c-26.36,0-40.28-5.33-40.28-5.33v-80.86s13.33,5.33,40.28,5.33,41.24-5.33,41.24-5.33v80.86Z"/>
      <path class="af" d="m426.04,325.35c0-6.21,5.04-11.25,11.26-11.25s11.25,5.04,11.25,11.25-5.04,11.25-11.25,11.25-11.26-5.04-11.26-11.25Z"/>
      <path class="af" d="m384.72,325.35c0-6.21,5.04-11.25,11.25-11.25s11.26,5.04,11.26,11.25-5.04,11.25-11.26,11.25-11.25-5.04-11.25-11.25Z"/>
      <path class="ac" d="m408.32,65.73s-5.11.74-7.33.67c-2.22-.07-8.96-1.33-8.96-1.33,0,0,6.37,2.81,8.7,2.74,2.33-.08,7.59-2.07,7.59-2.07Z"/>
      <path class="az" d="m423.58,61.29c0,1.46,3.9,3.96,8.71,3.96s8.71-2.57,8.71-3.96c0,0-3.9-4.44-8.71-4.44s-8.71,4.44-8.71,4.44Z"/>
      <path class="v" d="m433.45,62.01c0-2.14-1.73-3.87-3.87-3.87s-3.87,1.73-3.87,3.87,2,2.41,4.13,2.41,3.6-.28,3.6-2.41Z"/>
      <path class="at" d="m432.64,61.15c-.59-.35-1.23-.65-1.41-.48-.18.17.45.8.8.92.35.12.6-.45.6-.45Z"/>
      <path class="ac" d="m441.24,61.36s-6.11-2.23-9-2.15c-2.89.07-8.93,2.22-8.93,2.22,0,0,3.56-5.1,8.38-5.1,5.7,0,9.55,5.04,9.55,5.04Z"/>
      <path class="ac" d="m424.34,65.73s5.11.74,7.33.67c2.22-.07,8.96-1.33,8.96-1.33,0,0-6.37,2.81-8.7,2.74-2.33-.08-7.59-2.07-7.59-2.07Z"/>
      <path class="ac" d="m424.34,63.25s5.11.91,7.33.82c2.22-.09,8.96-1.65,8.96-1.65,0,0-3.78,3-8.7,3.38-2.33.18-7.59-2.56-7.59-2.56Z"/>
      <path class="ac" d="m392.34,63.25s5.11.91,7.33.82c2.22-.09,8.96-1.65,8.96-1.65,0,0-3.78,3-8.7,3.38-2.33.18-7.59-2.56-7.59-2.56Z"/>
      <path class="ab" d="m405.91,93.42s8.39-2.44,10.4-2.44,10.81,2.44,10.81,2.44c0,0-5.28,2-10.28,2-6,0-10.93-2-10.93-2Z"/>
      <path class="an" d="m423.57,83.65s4.15,2.66,4.74,3.85c.59,1.18,1.33,5.48,1.33,5.48,0,0,0-5.18-.44-6.07-.44-.89-5.63-3.26-5.63-3.26Z"/>
      <path class="an" d="m409.65,83.65s-4.15,2.66-4.74,3.85c-.59,1.18-1.33,5.48-1.33,5.48,0,0,0-5.18.44-6.07.44-.89,5.63-3.26,5.63-3.26Z"/>
      <path class="ad" d="m440.61,38.78s-6.49-2.94-8.81-2.96c-10.77-.11-39.1,2.33-39.1,2.33,0,0-1.85,5.37-3.33,7.29-1.48,1.92-4.74,10.66-4.74,15.85v7.11l-2.52.3-.59-9.03-1.04.15s-5.33-19.25,1.92-27.25c2.7-2.97,8.45-13.16,17.03-15.7,8-2.37,21.49-5.7,31.41-2.44,6.7,2.2,19.46,10.09,23.09,16.36,4.89,8.44.3,25.18.3,25.18l-.89.59-2.07,9.92-2.07-.3s.59-8,.44-10.66c-.15-2.67-3.11-9.04-4.74-12.15-1.63-3.11-4.29-4.59-4.29-4.59Z"/>
      <path class="e" d="m417.67,262.83c-.1,3.5.4,20.09.4,22.79s-.2,36.67-.2,40.45.2,49.08.4,52.85c.2,3.78,0,25.89,0,25.89h-3.03v-7.82c0-5.12.87-123.93,1.01-133.21.14-9.28.51-14.92.51-14.92,0,0,.96,12.32.91,13.98Z"/>
      <path class="t" d="m440.32,60.95s.43-.9.44-1.37c0,0-.4.86-.77,1.23l.33.14Z"/>
      <path class="t" d="m439.48,60.65s.25-.94.17-1.4c0,0-.23.89-.53,1.3l.35.1Z"/>
      <path class="t" d="m438.2,60.28s.32-.93.28-1.39c0,0-.3.88-.63,1.28l.35.12Z"/>
      <path class="t" d="m436.86,59.9s.29-.93.24-1.4c0,0-.27.89-.59,1.29l.35.11Z"/>
      <path class="t" d="m435.28,59.53s.21-.95.12-1.41c0,0-.19.9-.47,1.31l.36.09Z"/>
      <path class="t" d="m433.83,59.25s.02-.96-.16-1.4c0,0-.02.91-.21,1.35l.37.05Z"/>
      <path class="t" d="m432.33,59.17s-.06-.96-.27-1.39c0,0,.06.91-.1,1.36l.37.03Z"/>
      <path class="t" d="m430.99,59.27s-.21-.95-.5-1.36c0,0,.21.9.12,1.36h.38Z"/>
      <path class="t" d="m429.74,59.43s-.27-.94-.58-1.34c0,0,.26.89.2,1.35l.38-.02Z"/>
      <path class="t" d="m428.19,59.7s-.27-.94-.58-1.34c0,0,.26.89.21,1.35l.37-.02Z"/>
      <path class="t" d="m426.72,60.07s-.27-.94-.58-1.34c0,0,.26.89.2,1.36l.38-.02Z"/>
      <path class="t" d="m425.28,60.48s-.27-.94-.58-1.34c0,0,.26.89.21,1.36l.37-.02Z"/>
      <path class="t" d="m424,60.94s-.27-.94-.58-1.34c0,0,.26.89.21,1.36l.37-.02Z"/>
      <path class="n" d="m423.51,61.33c-.12-.65,4.83-2.39,8.98-2.39s9.27,2.5,9.27,2.5c0,0-6.32-1.66-9.45-1.66s-8.81,1.54-8.81,1.54Z"/>
      <path class="j" d="m432.96,16.42c15-1,22.9,17.86,22.42,22.72-1.67,16.77-2.35,25.28-2.53,27.28l-1,22-9.35,8.93s13.71,6.97,14.66,8.88c.45.9.58,33.9.66,77.35,0,2.08-.84,6.38-.84,6.57,0,.7.65.87.9,1.53.49,1.3.81,3.5.81,4.49,0,2.16-.84,5.12-.84,5.48,0,84.5-.07,194.52-.07,194.52,0,0-4.12,3.23-17.43,5.03,0,0-.09-130.6-2.52-218.51-1.94-70.37,4.72-86.02,4.72-86.02l-6.07-66.87-3.53-13.37Z"/>
      <g>
        <path class="i" d="m395,118.16s7.85-6.88,8.89-7.41c1.04-.52,5.03,2.3,5.03,2.3,0,0-13.1,5.11-13.54,5.41-.44.29-.37-.3-.37-.3Z"/>
        <path class="i" d="m438.35,118.42s-7.85-6.89-8.89-7.4c-1.04-.52-4.96,2.67-4.96,2.67,0,0,13.03,4.74,13.48,5.04.44.3.37-.3.37-.3Z"/>
      </g>
      <path class="aw" d="m418.13,11.86s-7.86,5.46-10.42,13.33-3.8,15.08-3.8,15.08l33.46-1.2s-.54-7.33-3.37-13.88-15.87-13.33-15.87-13.33Z"/>
      <path class="z" d="m417.55,11.42s25.11,5.47,28.5,12.02,7.8,20.98,7.8,20.98c0,0-9.03-6.56-16.47-5.36-4.66.75.35-8.27-4.96-15.62s-14.87-12.02-14.87-12.02Z"/>
      <path class="z" d="m419.15,11.42s-25.11,5.47-28.5,12.02c-3.4,6.55-7.8,20.98-7.8,20.98,0,0,13.53-4.15,21.07-4.15,2.12,0,0-6.01,3.72-14.42s11.51-14.42,11.51-14.42Z"/>
      <path class="aw" d="m453.85,44.42l2,1s.12-11.28-2-14-8.11-8.87-8.11-8.87l8.11,21.87Z"/>
      <path class="aw" d="m382.85,44.42h-4s1.88-11.28,4-14,9-9,9-9l-9,23Z"/>
      <polygon class="an" points="398.91 47.78 411.85 46.42 428.85 46.42 411.88 45.42 398.91 47.78"/>
      <polygon class="an" points="400.89 42.54 413.86 42.57 430.82 41.36 413.95 43.26 400.89 42.54"/>
      <polygon class="an" points="400.46 45.42 410.66 44.42 404.93 44.42 400.46 45.42"/>
      <polygon class="an" points="416.93 44.11 423.32 43.53 429.85 44.11 416.93 44.11"/>
      <polygon class="an" points="406.32 93.42 414.43 92.98 418.34 92.98 427.13 93.42 416.32 90.98 406.32 93.42"/>
      <path class="k" d="m452.95,44.92l.94.5s-.65,33.34-5.04,43c-1.63,3.58-9.98,18.03-31.83,18.02-21.17-.02-32.39-16.75-34.17-27.02s-1-34-1-34l1-1v28c0,19,16,33,34.17,33.63,16.87.58,28.42-11.69,31.83-20.63,3.61-9.49,4.1-40.5,4.1-40.5Z"/>
      <path class="e" d="m401.85,241.42s6.83,7.87,14.91,7.43,14.09-6.43,14.09-6.43c0,0-10.06,4.31-13.53,4.65s-15.47-5.65-15.47-5.65Z"/>
    </g>
  </g>
</svg>