<?xml version="1.0" encoding="UTF-8"?>
<svg id="a" data-name="Layer 1" xmlns="http://www.w3.org/2000/svg" viewBox="0 0 455.42 383.72">
  <defs>
    <style>
      .b {
        stroke-width: 0px;
      }
    </style>
  </defs>
  <path class="b" d="m2.44,28.51C2.44,23.2,13.77.29,38.21.29c26.21,0,40.43,16.91,40.43,22.21l2.89,30.43-14.17,31.04,14.23,8.5v281.63c0,5.3-4.43,9.61-9.89,9.61H9.89c-5.46,0-9.89-4.3-9.89-9.61V92.26l13.33-8.28L0,53.39l2.44-24.88Z"/>
  <path class="b" d="m183.29,28.21c0-5.31,11.33-28.21,35.77-28.21,26.21,0,40.43,16.91,40.43,22.21,0,0-3.8,49.11-3.82,49.58-.15,3.85-8.66,12.14-8.66,12.14l10.81,6,3.11,2.81,1.36,4.4.13,276.67c0,5.31-4.43,9.61-9.89,9.61h-61.8c-5.46,0-9.89-4.3-9.89-9.61V98.08l2.3-3.82,1.22-4.18,9.81-6.4s-6.93-7.94-8.26-11.23l-2.63-44.25Z"/>
  <path class="b" d="m376.29,28.21c0-5.31,11.33-28.21,35.77-28.21,26.21,0,40.43,16.91,40.43,22.21,0,0-3.8,49.11-3.82,49.58-.15,3.85-8.66,12.14-8.66,12.14l10.81,6,3.11,2.81,1.36,4.4.13,276.67c0,5.31-4.43,9.61-9.89,9.61h-61.8c-5.46,0-9.89-4.3-9.89-9.61V98.08l2.3-3.82,1.22-4.18,9.81-6.4s-6.93-7.94-8.26-11.23l-2.63-44.25Z"/>
</svg>